<svg xmlns="http://www.w3.org/2000/svg" viewBox="0 0 154.941 50.159"><defs><style>.a{fill:#1e1e1e;}.b{fill:#fff;}.c{fill:#2ca01c;}.d{fill:#365ebf;}</style></defs><path class="a" d="M10.779,51.059H9.6A8.506,8.506,0,0,1,7.1,50.8,11.091,11.091,0,0,1,4.87,50.14a9.321,9.321,0,0,1-1.838-1.313,5.919,5.919,0,0,1-1.313-1.838,5.578,5.578,0,0,1-.657-2.232A20.23,20.23,0,0,1,.8,42.261V9.566a8.954,8.954,0,0,1,.263-2.495,13.669,13.669,0,0,1,.788-2.1A9.321,9.321,0,0,1,3.164,3.132,9.321,9.321,0,0,1,5,1.819a6.3,6.3,0,0,1,2.232-.657A7.674,7.674,0,0,1,9.6.9H146.943a8.955,8.955,0,0,1,2.495.263,14.348,14.348,0,0,1,2.232.657,9.321,9.321,0,0,1,1.838,1.313,5.919,5.919,0,0,1,1.313,1.838,6.484,6.484,0,0,1,.657,2.1,16.087,16.087,0,0,1,.263,2.495v32.7a17.941,17.941,0,0,1-.263,2.495,11.09,11.09,0,0,1-.657,2.232,9.32,9.32,0,0,1-1.313,1.838,5.919,5.919,0,0,1-1.838,1.313,5.578,5.578,0,0,1-2.232.657c-.788.131-1.707.131-2.495.263H10.779Z" transform="translate(-0.8 -0.9)"/><g transform="translate(17.81 6.957)"><ellipse class="b" cx="11.232" cy="11.232" rx="11.232" ry="11.232" transform="translate(2.247 1.79)"/><g transform="translate(0 0)"><path class="c" d="M13.035-.006A13.021,13.021,0,1,1-.006,13.147,12.97,12.97,0,0,1,13.035-.006Zm.64,18.184a40.408,40.408,0,0,0,4.462-.193,4.968,4.968,0,0,0,4.127-4.838,4.919,4.919,0,0,0-1.23-3.466,5.091,5.091,0,0,0-4.33-1.83V9.528c.366.051.7.081,1.027.142A3.37,3.37,0,0,1,19,15.789c-1.108.793-2.328.549-3.568.59V5.34H13.686C13.676,9.62,13.676,13.848,13.676,18.178Zm-1.291,2.46V7.871c-1.311,0-2.592-.01-3.873.01a3.074,3.074,0,0,0-.742.132A5.118,5.118,0,0,0,9.437,18.087V16.44c-.4-.051-.783-.091-1.149-.152a3.348,3.348,0,0,1-2.124-5.153c1-1.514,2.592-1.738,4.543-1.454V20.648C11.277,20.638,11.816,20.638,12.385,20.638Z" transform="translate(0.006 0.007)"/><path class="b" d="M305.439,111.709H307.8c.691,0,.691,0,.691.671v.579a3.829,3.829,0,0,1-.417.051c-2.206,0-4.4.02-6.607-.01a6.434,6.434,0,0,1-6.373-6.363,6.347,6.347,0,0,1,5.407-6.678,6.461,6.461,0,0,1,6.83,2.948,6.363,6.363,0,0,1-.295,7.268A15.238,15.238,0,0,1,305.439,111.709Zm-3.781-.122a5.166,5.166,0,0,0,.041-10.327,5.167,5.167,0,0,0-.041,10.327Z" transform="translate(-265.096 -89.692)"/><path class="b" d="M716,116.02V103.244a2.125,2.125,0,0,1,.346-.041c1.352,0,2.7-.03,4.066.01a4.42,4.42,0,0,1,2.775.935,2.941,2.941,0,0,1-.59,4.818c-.193.1-.4.183-.661.295a3.275,3.275,0,0,1,2.378,1.443c1.3,2.033.152,4.5-2.358,5.072a9.246,9.246,0,0,1-1.9.224C718.724,116.041,717.392,116.02,716,116.02Zm1.515-1.423c1.006,0,1.951.03,2.9-.01a4.59,4.59,0,0,0,1.372-.285,1.949,1.949,0,0,0,1.4-1.952,2.106,2.106,0,0,0-1.545-2.084,15.2,15.2,0,0,0-4.137-.244C717.515,111.568,717.515,113.052,717.515,114.6Zm.01-9.9v3.873c1.077,0,2.124.081,3.161-.02a1.842,1.842,0,0,0,1.83-1.809,1.708,1.708,0,0,0-1.718-2.013A25.016,25.016,0,0,0,717.525,104.7Z" transform="translate(-643.223 -92.703)"/><path class="b" d="M1009.746,108.111c-1.311,1.24-2.622,2.47-3.984,3.751,1.484,1.514,2.948,3.019,4.513,4.6-.742,0-1.362.01-1.972-.01-.122,0-.254-.142-.356-.244q-1.8-1.891-3.6-3.8c-.091-.1-.173-.2-.356-.427v4.462H1002.6V103.7h1.352v8c.163-.122.264-.193.356-.274,1.047-1.006,2.1-2.013,3.131-3.039a1.1,1.1,0,0,1,.935-.376c.437.03.874.01,1.321.01C1009.7,108.04,1009.725,108.071,1009.746,108.111Z" transform="translate(-900.692 -93.159)"/><path class="b" d="M636.4,103.4h1.372v8.06a37.118,37.118,0,0,0,2.775-2.694,2.8,2.8,0,0,1,3.029-.955c-1.332,1.26-2.653,2.5-4.015,3.781,1.484,1.514,2.938,3.009,4.493,4.6-.742,0-1.372.02-2-.01-.132-.01-.264-.193-.376-.3q-1.769-1.86-3.527-3.73a.776.776,0,0,0-.356-.264v4.3H636.4Z" transform="translate(-571.713 -92.889)"/><path class="b" d="M909.774,143.9a4.458,4.458,0,1,1-4.574,4.452A4.323,4.323,0,0,1,909.774,143.9Zm3.019,4.452a3.037,3.037,0,1,0-3.049,3.181A3.025,3.025,0,0,0,912.793,148.352Z" transform="translate(-813.192 -129.273)"/><path class="b" d="M813.762,144a4.453,4.453,0,1,1-4.564,4.391A4.343,4.343,0,0,1,813.762,144Zm-3.049,4.421a3.032,3.032,0,1,0,3.07-3.141A3.027,3.027,0,0,0,810.713,148.42Z" transform="translate(-726.948 -129.361)"/><path class="b" d="M444.085,146.2h1.423v8.426h-1.24c-.03-.4-.061-.793-.1-1.271-.132.173-.213.285-.3.4-1.23,1.545-4.086,1.535-5.143-.071a3.776,3.776,0,0,1-.59-1.789c-.071-1.87-.03-3.751-.03-5.662h1.393v3.862a16.084,16.084,0,0,0,.051,1.718,1.723,1.723,0,0,0,1.332,1.708,2.317,2.317,0,0,0,2.653-.986,4.744,4.744,0,0,0,.518-1.819c.081-1.311.03-2.643.03-3.954C444.085,146.576,444.085,146.413,444.085,146.2Z" transform="translate(-393.557 -131.339)"/><path class="b" d="M1079.124,145.49c-.417.274-.762.508-1.159.772a2.015,2.015,0,0,0-1.616-.966,2.961,2.961,0,0,0-1.3.274,1.222,1.222,0,0,0-.549.874,1.145,1.145,0,0,0,.6.772,8.105,8.105,0,0,0,1.484.457,14.091,14.091,0,0,1,1.453.437,2.416,2.416,0,0,1,.651,3.9c-1.149,1.108-4.493,1.311-5.733-.346-.081-.1-.153-.213-.254-.356.376-.295.732-.569,1.108-.864a2.511,2.511,0,0,0,1.972,1.108,4.521,4.521,0,0,0,1.423-.264,1.012,1.012,0,0,0,.661-1.037.963.963,0,0,0-.681-.966c-.569-.213-1.159-.335-1.738-.508a8.307,8.307,0,0,1-1.006-.325,2.143,2.143,0,0,1-.559-3.71,3.821,3.821,0,0,1,4.909.244C1078.89,145.135,1078.992,145.307,1079.124,145.49Z" transform="translate(-963.666 -129.339)"/><path class="b" d="M858.874,272.4a15.568,15.568,0,0,1-.712,2.4,3.839,3.839,0,0,1-4.472,1.972,3.766,3.766,0,0,1-3-3.619,5.518,5.518,0,0,1,.478-2.968,3.773,3.773,0,0,1,4.147-2.053c2.236.315,3.425,1.789,3.415,4.228A1.039,1.039,0,0,0,858.874,272.4Zm-7.064.285c.031.213.051.579.132.945a2.582,2.582,0,0,0,2.622,2.216,2.48,2.48,0,0,0,2.765-1.88,4.6,4.6,0,0,0,.112-2.8,2.786,2.786,0,0,0-4.076-1.748C852.135,270.1,851.861,271.263,851.81,272.686Z" transform="translate(-764.203 -240.83)"/><path class="b" d="M559.6,145.125c-.376.335-.732.64-1.108.966a2.826,2.826,0,0,0-3.049-.9c-1.636.417-2.134,2.256-1.962,3.476a3.124,3.124,0,0,0,1.25,2.236,2.832,2.832,0,0,0,3.781-.539c.335.3.671.61,1,.915-.6,1.057-2.531,1.657-4.157,1.321a4.147,4.147,0,0,1-3.405-3.934,4.406,4.406,0,0,1,2.45-4.5A4.647,4.647,0,0,1,559.6,145.125Z" transform="translate(-495.821 -129.146)"/><path class="b" d="M1121.489,294.762h-4.33a1.77,1.77,0,0,0,1.077,1.962,1.7,1.7,0,0,0,2.1-.874c.264-.529.671-.183,1.006-.285.132.661-.722,1.586-1.3,1.84a2.731,2.731,0,0,1-3.954-2.094,3.709,3.709,0,0,1,.529-2.866,2.694,2.694,0,0,1,2.948-1.077,2.508,2.508,0,0,1,1.921,2.287C1121.519,294,1121.489,294.345,1121.489,294.762Zm-1.027-.844c-.122-1.22-.691-1.779-1.728-1.748a1.673,1.673,0,0,0-1.575,1.748Z" transform="translate(-1002.575 -261.666)"/><path class="d" d="M325.444,23.861a12.143,12.143,0,0,1,1.86-.386,1.47,1.47,0,0,1,1.606,1.514c.041,1.179.01,2.368.02,3.558,0,.295-.142.386-.407.386-.152,0-.3-.01-.457,0-.356.02-.478-.152-.468-.5.01-.945.01-1.891,0-2.846-.01-.823-.407-1.118-1.21-.925-.742.183-.915.4-.915,1.128,0,.884-.02,1.758.01,2.643.02.5-.274.5-.62.488s-.732.081-.722-.5c.02-1.4,0-2.805.01-4.218,0-.244-.122-.63.295-.63C324.814,23.586,325.332,23.312,325.444,23.861Z" transform="translate(-291.189 -21.085)"/><path class="d" d="M433.168,29.046a2.905,2.905,0,0,1-2.206.529,1.4,1.4,0,0,1-1.2-1.321c-.081-1.25-.061-2.5-.051-3.751,0-.122.224-.274.376-.346.122-.061.3,0,.447-.01.386-.041.5.142.5.508q-.015,1.418,0,2.836c0,.4.041.793.529.915a1.819,1.819,0,0,0,1.484-.468,1.015,1.015,0,0,0,.041-.4c0-.966.03-1.931-.01-2.887-.02-.579.346-.5.7-.508s.661-.051.64.5c-.03,1.433-.01,2.877-.01,4.31,0,.244.061.569-.335.539C433.747,29.483,433.229,29.747,433.168,29.046Z" transform="translate(-386.025 -21.676)"/><path class="b" d="M947.269,297.444h-.956c0-.691.01-1.362,0-2.033-.01-.732.01-1.454-.061-2.175a1.085,1.085,0,0,0-1.382-1.037,1.559,1.559,0,0,0-1.393,1.393c-.061.823-.051,1.657-.071,2.48-.01.437,0,.874,0,1.352H942.4v-5.245c0-.884.01-.894.945-.722.02.213.041.447.061.742a2.529,2.529,0,0,1,2.358-.894,1.518,1.518,0,0,1,1.484,1.474C947.319,294.324,947.269,295.869,947.269,297.444Z" transform="translate(-846.61 -261.665)"/><path class="b" d="M1061.309,297.366h-1c0-1.149.01-2.287,0-3.415a5.051,5.051,0,0,0-.081-.955,1,1,0,0,0-1.067-.884,1.6,1.6,0,0,0-1.7,1.464c-.061.793-.051,1.586-.061,2.378-.01.457,0,.9,0,1.392H1056.4v-5.255c0-.864.03-.894.955-.711.01.213.02.427.041.722.142-.122.254-.214.356-.3a2.234,2.234,0,0,1,3.242.163,2.09,2.09,0,0,1,.315,1C1061.329,294.429,1061.309,295.883,1061.309,297.366Z" transform="translate(-949.023 -261.587)"/><path class="b" d="M527.762,154.806H526.4V146.4h1.362Z" transform="translate(-472.894 -131.519)"/><path class="d" d="M513.59,25.6h-1.128c-.518.01-.356-.386-.376-.651s-.071-.559.366-.549c1.2.02,2.4.01,3.6,0,.4,0,.386.254.366.508-.02.274.142.671-.356.681-.366.01-.732,0-1.149,0,0,1.22.01,2.378-.01,3.537,0,.193-.081.539-.173.559a2.971,2.971,0,0,1-1.037-.03c-.061-.01-.1-.295-.1-.447C513.58,28.037,513.59,26.858,513.59,25.6Z" transform="translate(-460.023 -21.917)"/><path class="d" d="M379.531,25.507c-.427,0-.762-.01-1.1,0-.508.03-.407-.325-.407-.62,0-.274-.091-.59.386-.59,1.179.02,2.368.02,3.547,0,.447-.01.386.285.366.549s.152.661-.376.661h-1.088V26.93c0,.742-.01,1.484.01,2.236.01.376-.142.508-.508.518-.833.02-.844.02-.844-.813C379.531,27.764,379.531,26.666,379.531,25.507Z" transform="translate(-339.595 -21.827)"/><path class="b" d="M1007.135,278.974h-.935V270.7h.935Z" transform="translate(-903.925 -243.184)"/><path class="d" d="M298.872,27.029c0,.732-.01,1.454,0,2.185.01.529-.325.5-.681.5s-.691.061-.691-.478q.015-2.211,0-4.421c0-.346.112-.508.468-.468a2.293,2.293,0,0,0,.457,0c.346-.03.447.142.437.457C298.862,25.545,298.872,26.287,298.872,27.029Z" transform="translate(-267.26 -21.865)"/><path class="d" d="M489.8,26.856c0-.712.02-1.423-.01-2.135-.02-.417.132-.559.529-.508a1.388,1.388,0,0,0,.356,0c.356-.041.468.122.457.478-.01,1.454-.031,2.907,0,4.361.01.559-.325.518-.691.529-.4.01-.691-.01-.661-.549C489.832,28.309,489.8,27.587,489.8,26.856Z" transform="translate(-439.995 -21.742)"/><path class="b" d="M1032.655,299.356l-.254.03h-.7V293.4h.955Z" transform="translate(-926.834 -263.577)"/><path class="d" d="M526.994,2.821a.75.75,0,0,1-.813.762.8.8,0,0,1-.783-.823A.785.785,0,0,1,526.231,2,.759.759,0,0,1,526.994,2.821Z" transform="translate(-471.994 -1.794)"/><path class="d" d="M392.132,2.1a.769.769,0,0,1,.783.8.8.8,0,0,1-.813.783.827.827,0,0,1-.8-.813A.8.8,0,0,1,392.132,2.1Z" transform="translate(-351.524 -1.884)"/><path class="b" d="M1031.7,270.7h.965v1.1h-.965Z" transform="translate(-926.834 -243.184)"/><path class="b" d="M1151.378,211.2a1.166,1.166,0,0,1,1.209,1.169,1.191,1.191,0,0,1-1.2,1.179,1.157,1.157,0,0,1-1.189-1.179A1.118,1.118,0,0,1,1151.378,211.2Zm.02,2.175a1.013,1.013,0,0,0,1.006-1,1.055,1.055,0,0,0-1.037-1.037,1.013,1.013,0,0,0-.986,1.067A.965.965,0,0,0,1151.4,213.375Z" transform="translate(-1033.287 -189.732)"/><path class="b" d="M1157.9,216.742V215.4a4.881,4.881,0,0,1,.894.274c.041.02-.081.376-.132.579-.041,0-.081-.01-.132-.01.1.163.193.335.295.5a.438.438,0,0,1-.071.061c-.193-.213-.376-.427-.661-.742-.061.315-.092.5-.122.681Zm.254-1.23c-.061.071-.132.142-.193.213.1.122.193.3.315.335.1.02.254-.142.376-.224C1158.49,215.735,1158.317,215.624,1158.154,215.512Z" transform="translate(-1040.206 -193.505)"/></g></g></svg>