<svg xmlns="http://www.w3.org/2000/svg" xmlns:xlink="http://www.w3.org/1999/xlink" viewBox="0 0 168.953 66.868"><defs><style>.a{fill:#fff;}.b{filter:url(#a);}</style><filter id="a" x="0" y="0" width="168.953" height="66.868" filterUnits="userSpaceOnUse"><feOffset dy="3" input="SourceAlpha"/><feGaussianBlur stdDeviation="3" result="b"/><feFlood flood-opacity="0.302"/><feComposite operator="in" in2="b"/><feComposite in="SourceGraphic"/></filter></defs><g transform="translate(9 6)"><g transform="translate(0 0)"><g class="b" transform="matrix(1, 0, 0, 1, -9, -6)"><path class="a" d="M10.522,49.768H9.371a8.287,8.287,0,0,1-2.431-.256,10.805,10.805,0,0,1-2.175-.64,9.081,9.081,0,0,1-1.791-1.279A5.766,5.766,0,0,1,1.7,45.8a5.435,5.435,0,0,1-.64-2.175A19.709,19.709,0,0,1,.8,41.2V9.343a8.724,8.724,0,0,1,.256-2.431,13.318,13.318,0,0,1,.768-2.047A9.081,9.081,0,0,1,3.1,3.075,9.081,9.081,0,0,1,4.894,1.8a6.135,6.135,0,0,1,2.175-.64A7.477,7.477,0,0,1,9.371.9H143.182a8.724,8.724,0,0,1,2.431.256,13.978,13.978,0,0,1,2.175.64,9.081,9.081,0,0,1,1.791,1.279,5.766,5.766,0,0,1,1.279,1.791,6.318,6.318,0,0,1,.64,2.047,15.674,15.674,0,0,1,.256,2.431V41.2a17.48,17.48,0,0,1-.256,2.431,10.8,10.8,0,0,1-.64,2.175,9.08,9.08,0,0,1-1.279,1.791,5.766,5.766,0,0,1-1.791,1.279,5.435,5.435,0,0,1-2.175.64c-.768.128-1.663.128-2.431.256H10.522Z" transform="translate(8.2 5.1)"/></g><g transform="translate(11.764 9.978)"><path d="M28.934,22.094A6.545,6.545,0,0,1,32,16.721a6.879,6.879,0,0,0-5.117-2.814c-2.175-.256-4.222,1.279-5.373,1.279s-2.814-1.279-4.605-1.279a7.01,7.01,0,0,0-5.757,3.454c-2.431,4.222-.64,10.618,1.791,14.072,1.151,1.663,2.559,3.582,4.349,3.582,1.791-.128,2.431-1.151,4.605-1.151s2.686,1.151,4.605,1.151,3.07-1.663,4.222-3.454a11.509,11.509,0,0,0,1.919-3.966A5.651,5.651,0,0,1,28.934,22.094Z" transform="translate(-9.996 -7.254)"/><path d="M22.9,13.177A6.1,6.1,0,0,0,24.312,8.7a5.705,5.705,0,0,0-4.094,2.175,5.624,5.624,0,0,0-1.407,4.349A5.553,5.553,0,0,0,22.9,13.177Z" transform="translate(-7.549 -8.7)"/><g transform="translate(31.347 11.769)"><path d="M44.478,29.613H38.466l-1.407,4.349H34.5L40.257,18.1h2.559l5.757,15.863H46.013Zm-5.373-1.919h4.861l-2.431-7.036h-.128Z" transform="translate(-34.5 -17.844)"/><path d="M57.574,27.286c0,3.582-1.919,5.885-4.861,5.885a3.8,3.8,0,0,1-3.582-2.047h0V36.88H46.7V21.529H49v1.919h0a4,4,0,0,1,3.71-2.047C55.527,21.273,57.574,23.7,57.574,27.286Zm-2.559,0c0-2.3-1.151-3.838-3.07-3.838-1.791,0-3.07,1.535-3.07,3.838s1.279,3.838,3.07,3.838C53.864,31.123,55.015,29.588,55.015,27.286Z" transform="translate(-31.093 -16.924)"/><path d="M67.474,27.286c0,3.582-1.919,5.885-4.861,5.885a3.8,3.8,0,0,1-3.582-2.047h0V36.88H56.6V21.529h2.3v1.919h0a4,4,0,0,1,3.71-2.047C65.555,21.273,67.474,23.7,67.474,27.286Zm-2.431,0c0-2.3-1.151-3.838-3.07-3.838-1.791,0-3.07,1.535-3.07,3.838s1.279,3.838,3.07,3.838C63.892,31.123,65.043,29.588,65.043,27.286Z" transform="translate(-28.328 -16.924)"/><path d="M72.175,29.541c.128,1.535,1.663,2.559,3.838,2.559,2.047,0,3.454-1.023,3.454-2.431,0-1.279-.9-1.919-2.942-2.431l-2.047-.512c-2.942-.768-4.222-2.047-4.222-4.222,0-2.686,2.431-4.605,5.757-4.605s5.629,1.919,5.757,4.605H79.339c-.128-1.535-1.407-2.559-3.326-2.559s-3.2,1.023-3.2,2.431c0,1.151.9,1.791,2.942,2.3l1.791.384c3.2.768,4.605,2.047,4.605,4.35,0,2.942-2.431,4.861-6.14,4.861-3.582,0-5.885-1.791-6.013-4.733h2.175Z" transform="translate(-24.586 -17.9)"/><path d="M84.166,19.3v2.686H86.34v1.919H84.166v6.4c0,1.023.384,1.407,1.407,1.407h.768v1.919a3.565,3.565,0,0,1-1.279.128c-2.3,0-3.2-.9-3.2-3.07V24.033H80.2V22.114h1.663V19.428h2.3Z" transform="translate(-21.738 -17.509)"/><path d="M86.1,27.285c0-3.582,2.175-5.885,5.5-5.885s5.5,2.3,5.5,5.885c0,3.71-2.175,5.885-5.5,5.885C88.147,33.169,86.1,30.867,86.1,27.285Zm8.571,0c0-2.559-1.151-3.966-3.07-3.966s-3.07,1.407-3.07,3.966,1.151,3.966,3.07,3.966S94.671,29.715,94.671,27.285Z" transform="translate(-20.09 -16.923)"/><path d="M96.2,21.4h2.3v2.047h0a2.773,2.773,0,0,1,2.814-2.047c.384,0,.64,0,.768.128V23.7a2.2,2.2,0,0,0-1.023-.128c-1.535,0-2.431,1.023-2.431,2.686v6.908H96.2V21.4Z" transform="translate(-17.269 -16.923)"/><path d="M111.69,29.615A4.823,4.823,0,0,1,106.7,33.2c-3.326,0-5.5-2.3-5.5-5.885s2.047-6.013,5.373-6.013c3.2,0,5.245,2.175,5.245,5.757v.768h-8.187v.128a3.1,3.1,0,0,0,3.07,3.326,2.726,2.726,0,0,0,2.686-1.663h2.3Zm-8.059-3.454h5.757a2.721,2.721,0,0,0-2.814-2.942A2.976,2.976,0,0,0,103.631,26.161Z" transform="translate(-15.873 -16.951)"/></g></g></g><g transform="translate(44.518 9.594)"><path d="M38.414,8.7c2.3,0,3.582,1.407,3.582,3.838s-1.279,3.838-3.582,3.838H35.6V8.7Zm-1.535,6.652h1.407a2.454,2.454,0,0,0,2.559-2.686,2.392,2.392,0,0,0-2.559-2.686H36.879Z" transform="translate(-35.6 -8.316)"/><path d="M41.7,13.042c0-1.919,1.023-2.942,2.686-2.942a2.627,2.627,0,0,1,2.686,2.942c0,1.919-1.023,2.942-2.686,2.942C42.723,16.113,41.7,14.961,41.7,13.042Zm4.222,0q0-1.919-1.535-1.919c-1.023,0-1.535.768-1.535,1.919,0,1.279.512,2.047,1.535,2.047S45.922,14.322,45.922,13.042Z" transform="translate(-33.896 -7.925)"/><path d="M52.968,15.957H51.817l-1.151-4.222h-.128l-1.151,4.222H48.235L46.7,10.2h1.151l1.023,4.349H49L50.154,10.2h1.151l1.151,4.349h.128L53.608,10.2h1.151Z" transform="translate(-32.5 -7.897)"/><path d="M53.9,10.228h1.151v.9h.128A1.714,1.714,0,0,1,56.842,10.1a1.922,1.922,0,0,1,2.047,2.175v3.71H57.738V12.531c0-.9-.384-1.407-1.279-1.407a1.28,1.28,0,0,0-1.407,1.407v3.326H53.9V10.228Z" transform="translate(-30.489 -7.925)"/><path d="M59.1,8.4h1.151v8.059H59.1Z" transform="translate(-29.037 -8.4)"/><path d="M61.2,13.042c0-1.919,1.023-2.942,2.686-2.942a2.627,2.627,0,0,1,2.686,2.942c0,1.919-1.023,2.942-2.686,2.942C62.223,16.113,61.2,14.961,61.2,13.042Zm4.349,0q0-1.919-1.535-1.919c-1.023,0-1.535.768-1.535,1.919,0,1.279.512,2.047,1.535,2.047C64.91,15.089,65.549,14.322,65.549,13.042Z" transform="translate(-28.451 -7.925)"/><path d="M66.4,14.322c0-1.023.768-1.663,2.175-1.663l1.535-.128v-.512c0-.64-.384-.9-1.151-.9-.64,0-1.023.256-1.151.64H66.656a2.06,2.06,0,0,1,2.3-1.663c1.407,0,2.3.768,2.3,1.919v3.966H70.11v-.768h-.128a1.936,1.936,0,0,1-1.791.9A1.749,1.749,0,0,1,66.4,14.322Zm3.71-.512V13.3l-1.407.128c-.768,0-1.151.384-1.151.768,0,.512.512.768,1.023.768A1.211,1.211,0,0,0,70.11,13.81Z" transform="translate(-26.999 -7.925)"/><path d="M71.3,13.517c0-1.791.9-2.942,2.431-2.942A2.042,2.042,0,0,1,75.522,11.6h.128V8.4H76.8v8.059H75.649v-.9h-.128a2.042,2.042,0,0,1-1.791,1.023C72.323,16.587,71.3,15.436,71.3,13.517Zm1.279,0c0,1.279.64,1.919,1.535,1.919s1.535-.768,1.535-1.919S75.01,11.6,74.114,11.6C73.091,11.6,72.579,12.366,72.579,13.517Z" transform="translate(-25.63 -8.4)"/><path d="M79.2,13.042c0-1.919,1.023-2.942,2.686-2.942a2.627,2.627,0,0,1,2.686,2.942c0,1.919-1.023,2.942-2.686,2.942C80.223,16.113,79.2,14.961,79.2,13.042Zm4.35,0q0-1.919-1.535-1.919c-1.023,0-1.535.768-1.535,1.919,0,1.279.512,2.047,1.535,2.047C82.91,15.089,83.549,14.322,83.549,13.042Z" transform="translate(-23.424 -7.925)"/><path d="M84.7,10.228h1.151v.9h.128A1.714,1.714,0,0,1,87.642,10.1a1.922,1.922,0,0,1,2.047,2.175v3.71H88.538V12.531c0-.9-.384-1.407-1.279-1.407a1.28,1.28,0,0,0-1.407,1.407v3.326H84.7Z" transform="translate(-21.888 -7.925)"/><path d="M93.975,9.1v1.407h1.279v1.023H93.975v2.942c0,.64.256.9.768.9h.384v.9h-.64c-1.279,0-1.791-.384-1.791-1.535v-3.2h-.9v-.9h.9V9.1Z" transform="translate(-19.905 -8.205)"/><path d="M95.7,8.4h1.151v3.2h.128a1.779,1.779,0,0,1,1.791-1.023,1.922,1.922,0,0,1,2.047,2.175v3.71H99.666V13.005c0-.9-.384-1.407-1.279-1.407a1.342,1.342,0,0,0-1.407,1.407v3.326H95.828V8.4Z" transform="translate(-18.816 -8.4)"/><path d="M105.945,14.449a2.352,2.352,0,0,1-2.559,1.663A2.627,2.627,0,0,1,100.7,13.17c0-1.791,1.023-3.07,2.686-3.07s2.559,1.151,2.559,2.942v.384h-4.094a1.514,1.514,0,0,0,1.535,1.663,1.651,1.651,0,0,0,1.407-.64h1.151Zm-4.094-1.919h2.942A1.452,1.452,0,0,0,103.386,11,1.651,1.651,0,0,0,101.851,12.531Z" transform="translate(-17.42 -7.925)"/></g></g></svg>