<svg xmlns="http://www.w3.org/2000/svg" viewBox="0 0 154.941 50.159"><defs><style>.a{fill:#1e1e1e;}.b{fill:#fff;}</style></defs><g transform="translate(0 0)"><path class="a" d="M10.779,51.059H9.6A8.506,8.506,0,0,1,7.1,50.8,11.091,11.091,0,0,1,4.87,50.14a9.321,9.321,0,0,1-1.838-1.313,5.919,5.919,0,0,1-1.313-1.838,5.578,5.578,0,0,1-.657-2.232A20.23,20.23,0,0,1,.8,42.261V9.566a8.954,8.954,0,0,1,.263-2.495,13.669,13.669,0,0,1,.788-2.1A9.321,9.321,0,0,1,3.164,3.132,9.321,9.321,0,0,1,5,1.819a6.3,6.3,0,0,1,2.232-.657A7.674,7.674,0,0,1,9.6.9H146.943a8.955,8.955,0,0,1,2.495.263,14.348,14.348,0,0,1,2.232.657,9.321,9.321,0,0,1,1.838,1.313,5.919,5.919,0,0,1,1.313,1.838,6.484,6.484,0,0,1,.657,2.1,16.087,16.087,0,0,1,.263,2.495v32.7a17.941,17.941,0,0,1-.263,2.495,11.09,11.09,0,0,1-.657,2.232,9.32,9.32,0,0,1-1.313,1.838,5.919,5.919,0,0,1-1.838,1.313,5.578,5.578,0,0,1-2.232.657c-.788.131-1.707.131-2.495.263H10.779Z" transform="translate(-0.8 -0.9)"/><g transform="translate(12.075 10.242)"><path class="b" d="M29.434,22.311A6.718,6.718,0,0,1,32.586,16.8a7.061,7.061,0,0,0-5.252-2.889C25.1,13.644,23,15.22,21.819,15.22s-2.889-1.313-4.727-1.313a7.2,7.2,0,0,0-5.909,3.545c-2.495,4.333-.657,10.9,1.838,14.444,1.182,1.707,2.626,3.677,4.464,3.677,1.838-.131,2.495-1.182,4.727-1.182s2.757,1.182,4.727,1.182,3.151-1.707,4.333-3.545a11.813,11.813,0,0,0,1.97-4.07A5.8,5.8,0,0,1,29.434,22.311Z" transform="translate(-9.996 -7.079)"/><path class="b" d="M23.014,13.3a6.259,6.259,0,0,0,1.444-4.6,5.856,5.856,0,0,0-4.2,2.232A5.773,5.773,0,0,0,18.812,15.4,5.7,5.7,0,0,0,23.014,13.3Z" transform="translate(-7.252 -8.7)"/><g transform="translate(32.175 12.08)"><path class="b" d="M44.742,29.918H38.57l-1.444,4.464H34.5L40.409,18.1h2.626l5.909,16.282H46.318Zm-5.515-1.97h4.99l-2.495-7.222h-.131Z" transform="translate(-34.5 -17.837)"/><path class="b" d="M57.861,27.441c0,3.677-1.97,6.04-4.99,6.04a3.9,3.9,0,0,1-3.677-2.1h0v5.909H46.7V21.532h2.364V23.5h0a4.107,4.107,0,0,1,3.808-2.1C55.76,21.27,57.861,23.765,57.861,27.441Zm-2.626,0c0-2.364-1.182-3.939-3.151-3.939-1.838,0-3.151,1.576-3.151,3.939s1.313,3.939,3.151,3.939C54.053,31.38,55.235,29.8,55.235,27.441Z" transform="translate(-30.681 -16.805)"/><path class="b" d="M67.761,27.441c0,3.677-1.97,6.04-4.99,6.04a3.9,3.9,0,0,1-3.677-2.1h0v5.909H56.6V21.532h2.364V23.5h0a4.107,4.107,0,0,1,3.808-2.1C65.791,21.27,67.761,23.765,67.761,27.441Zm-2.495,0c0-2.364-1.182-3.939-3.151-3.939-1.838,0-3.151,1.576-3.151,3.939s1.313,3.939,3.151,3.939C64.084,31.38,65.266,29.8,65.266,27.441Z" transform="translate(-27.581 -16.805)"/><path class="b" d="M72.232,29.849c.131,1.576,1.707,2.626,3.939,2.626,2.1,0,3.545-1.05,3.545-2.495,0-1.313-.919-1.97-3.02-2.495l-2.1-.525c-3.02-.788-4.333-2.1-4.333-4.333,0-2.757,2.495-4.727,5.909-4.727s5.777,1.97,5.909,4.727H79.585C79.454,21.051,78.141,20,76.171,20s-3.283,1.05-3.283,2.495c0,1.182.919,1.838,3.02,2.364l1.838.394c3.283.788,4.727,2.1,4.727,4.464,0,3.02-2.495,4.99-6.3,4.99-3.677,0-6.04-1.838-6.171-4.858h2.232Z" transform="translate(-23.386 -17.9)"/><path class="b" d="M84.27,19.3v2.757H86.5v1.97H84.27v6.565c0,1.05.394,1.444,1.444,1.444H86.5v1.97a3.659,3.659,0,0,1-1.313.131c-2.364,0-3.283-.919-3.283-3.151V24.158H80.2v-1.97h1.707V19.431H84.27Z" transform="translate(-20.193 -17.462)"/><path class="b" d="M86.1,27.44c0-3.677,2.232-6.04,5.646-6.04s5.646,2.364,5.646,6.04c0,3.808-2.232,6.04-5.646,6.04C88.2,33.48,86.1,31.117,86.1,27.44Zm8.8,0c0-2.626-1.182-4.07-3.151-4.07s-3.151,1.444-3.151,4.07,1.182,4.07,3.151,4.07S94.9,29.935,94.9,27.44Z" transform="translate(-18.346 -16.804)"/><path class="b" d="M96.2,21.4h2.364v2.1h0a2.846,2.846,0,0,1,2.889-2.1c.394,0,.657,0,.788.131v2.232a2.257,2.257,0,0,0-1.05-.131c-1.576,0-2.495,1.05-2.495,2.757V33.48H96.2V21.4Z" transform="translate(-15.184 -16.804)"/><path class="b" d="M111.967,29.835c-.394,2.1-2.495,3.677-5.121,3.677-3.414,0-5.646-2.364-5.646-6.04s2.1-6.171,5.515-6.171c3.283,0,5.384,2.232,5.384,5.909V28h-8.4v.131a3.18,3.18,0,0,0,3.151,3.414,2.8,2.8,0,0,0,2.757-1.707h2.364Zm-8.272-3.545H109.6a2.793,2.793,0,0,0-2.889-3.02A3.054,3.054,0,0,0,103.695,26.29Z" transform="translate(-13.619 -16.836)"/></g></g></g><g transform="translate(45.694 9.848)"><path class="b" d="M38.489,8.7c2.364,0,3.677,1.444,3.677,3.939s-1.313,3.939-3.677,3.939H35.6V8.7Zm-1.576,6.828h1.444a2.518,2.518,0,0,0,2.626-2.757,2.455,2.455,0,0,0-2.626-2.757H36.913Z" transform="translate(-35.6 -8.306)"/><path class="b" d="M41.7,13.12c0-1.97,1.05-3.02,2.757-3.02a2.7,2.7,0,0,1,2.757,3.02c0,1.97-1.05,3.02-2.757,3.02C42.75,16.271,41.7,15.09,41.7,13.12Zm4.333,0q0-1.97-1.576-1.97c-1.05,0-1.576.788-1.576,1.97,0,1.313.525,2.1,1.576,2.1S46.033,14.433,46.033,13.12Z" transform="translate(-33.69 -7.868)"/><path class="b" d="M53.134,16.109H51.952L50.77,11.776h-.131l-1.182,4.333H48.276L46.7,10.2h1.182l1.05,4.464h.131L50.245,10.2h1.182l1.182,4.464h.131l1.05-4.464h1.182Z" transform="translate(-32.125 -7.836)"/><path class="b" d="M53.9,10.231h1.182v.919h.131A1.759,1.759,0,0,1,56.92,10.1a1.973,1.973,0,0,1,2.1,2.232V16.14H57.839V12.595c0-.919-.394-1.444-1.313-1.444a1.314,1.314,0,0,0-1.444,1.444v3.414H53.9V10.231Z" transform="translate(-29.871 -7.868)"/><path class="b" d="M59.1,8.4h1.182v8.272H59.1Z" transform="translate(-28.243 -8.4)"/><path class="b" d="M61.2,13.12c0-1.97,1.05-3.02,2.757-3.02a2.7,2.7,0,0,1,2.757,3.02c0,1.97-1.05,3.02-2.757,3.02C62.25,16.271,61.2,15.09,61.2,13.12Zm4.464,0q0-1.97-1.576-1.97c-1.05,0-1.576.788-1.576,1.97,0,1.313.525,2.1,1.576,2.1C65.008,15.221,65.664,14.433,65.664,13.12Z" transform="translate(-27.586 -7.868)"/><path class="b" d="M66.4,14.433c0-1.05.788-1.707,2.232-1.707l1.576-.131V12.07c0-.657-.394-.919-1.182-.919-.657,0-1.05.263-1.182.657H66.663A2.115,2.115,0,0,1,69.026,10.1c1.444,0,2.364.788,2.364,1.97v4.07H70.208v-.788h-.131a1.987,1.987,0,0,1-1.838.919A1.8,1.8,0,0,1,66.4,14.433Zm3.808-.525v-.525l-1.444.131c-.788,0-1.182.394-1.182.788,0,.525.525.788,1.05.788A1.243,1.243,0,0,0,70.208,13.908Z" transform="translate(-25.958 -7.868)"/><path class="b" d="M71.3,13.652c0-1.838.919-3.02,2.495-3.02a2.1,2.1,0,0,1,1.838,1.05h.131V8.4h1.182v8.272H75.764v-.919h-.131a2.1,2.1,0,0,1-1.838,1.05C72.35,16.8,71.3,15.622,71.3,13.652Zm1.313,0c0,1.313.657,1.97,1.576,1.97s1.576-.788,1.576-1.97-.657-1.97-1.576-1.97C73.138,11.683,72.613,12.47,72.613,13.652Z" transform="translate(-24.424 -8.4)"/><path class="b" d="M79.2,13.12c0-1.97,1.05-3.02,2.757-3.02a2.7,2.7,0,0,1,2.757,3.02c0,1.97-1.05,3.02-2.757,3.02C80.25,16.271,79.2,15.09,79.2,13.12Zm4.464,0q0-1.97-1.576-1.97c-1.05,0-1.576.788-1.576,1.97,0,1.313.525,2.1,1.576,2.1C83.008,15.221,83.664,14.433,83.664,13.12Z" transform="translate(-21.951 -7.868)"/><path class="b" d="M84.7,10.231h1.182v.919h.131A1.759,1.759,0,0,1,87.72,10.1a1.973,1.973,0,0,1,2.1,2.232V16.14H88.639V12.595c0-.919-.394-1.444-1.313-1.444a1.314,1.314,0,0,0-1.444,1.444v3.414H84.7Z" transform="translate(-20.229 -7.868)"/><path class="b" d="M94.032,9.1v1.444h1.313v1.05H94.032v3.02c0,.657.263.919.788.919h.394v.919h-.657c-1.313,0-1.838-.394-1.838-1.576V11.595H91.8v-.919h.919V9.1Z" transform="translate(-18.006 -8.181)"/><path class="b" d="M95.7,8.4h1.182v3.283h.131a1.826,1.826,0,0,1,1.838-1.05,1.973,1.973,0,0,1,2.1,2.232v3.808H99.77V13.127c0-.919-.394-1.444-1.313-1.444a1.378,1.378,0,0,0-1.444,1.444v3.414H95.831V8.4Z" transform="translate(-16.785 -8.4)"/><path class="b" d="M106.084,14.564a2.414,2.414,0,0,1-2.626,1.707,2.7,2.7,0,0,1-2.757-3.02c0-1.838,1.05-3.151,2.757-3.151s2.626,1.182,2.626,3.02v.394h-4.2a1.554,1.554,0,0,0,1.576,1.707,1.694,1.694,0,0,0,1.444-.657h1.182Zm-4.2-1.97h3.02a1.49,1.49,0,0,0-1.444-1.576A1.694,1.694,0,0,0,101.882,12.595Z" transform="translate(-15.22 -7.868)"/></g></svg>