<svg xmlns="http://www.w3.org/2000/svg" xmlns:xlink="http://www.w3.org/1999/xlink" viewBox="0 0 169.518 50.228"><defs><style>.a{fill:#1e1e1e;}.b,.c,.j{fill:#fff;}.b{stroke:#fff;stroke-miterlimit:10;stroke-width:0.2px;}.d{fill:url(#a);}.e{fill:url(#b);}.f{fill:url(#c);}.g{fill:url(#d);}.h{opacity:0.2;}.i{opacity:0.12;}.j{opacity:0.25;}</style><linearGradient id="a" x1="0.908" y1="6.632" x2="-0.383" y2="5.96" gradientUnits="objectBoundingBox"><stop offset="0" stop-color="#00a0ff"/><stop offset="0.007" stop-color="#00a1ff"/><stop offset="0.26" stop-color="#00beff"/><stop offset="0.512" stop-color="#00d2ff"/><stop offset="0.76" stop-color="#00dfff"/><stop offset="1" stop-color="#00e3ff"/></linearGradient><linearGradient id="b" x1="1.077" y1="17.2" x2="-1.307" y2="17.2" gradientUnits="objectBoundingBox"><stop offset="0" stop-color="#ffe000"/><stop offset="0.409" stop-color="#ffbd00"/><stop offset="0.775" stop-color="orange"/><stop offset="1" stop-color="#ff9c00"/></linearGradient><linearGradient id="c" x1="0.864" y1="10.839" x2="-0.499" y2="9.074" gradientUnits="objectBoundingBox"><stop offset="0" stop-color="#ff3a44"/><stop offset="1" stop-color="#c31162"/></linearGradient><linearGradient id="d" x1="-0.186" y1="13.614" x2="0.423" y2="12.822" gradientUnits="objectBoundingBox"><stop offset="0" stop-color="#32a071"/><stop offset="0.068" stop-color="#2da771"/><stop offset="0.476" stop-color="#15cf74"/><stop offset="0.801" stop-color="#06e775"/><stop offset="1" stop-color="#00f076"/></linearGradient></defs><path class="a" d="M163.239,50.227H6.278A6.3,6.3,0,0,1,0,43.949V6.278A6.3,6.3,0,0,1,6.278,0H163.239a6.3,6.3,0,0,1,6.278,6.278V43.949A6.217,6.217,0,0,1,163.239,50.227Z"/><g transform="translate(51.985 8.664)"><path class="b" d="M48.934,11.044a3.42,3.42,0,0,1-.879,2.511A3.893,3.893,0,0,1,41.4,10.793,3.859,3.859,0,0,1,45.293,6.9a3.343,3.343,0,0,1,1.507.377,2.734,2.734,0,0,1,1.13.879l-.628.628A2.342,2.342,0,0,0,45.293,7.9a2.5,2.5,0,0,0-2.009.879,2.587,2.587,0,0,0-.879,2.135,2.587,2.587,0,0,0,.879,2.135,3.233,3.233,0,0,0,2.009.879,2.754,2.754,0,0,0,2.135-.879,2.079,2.079,0,0,0,.628-1.507H45.293v-1h3.641C48.934,10.667,48.934,10.918,48.934,11.044Z" transform="translate(-41.4 -6.9)"/><path class="b" d="M52.895,7.879H49.5v2.386h3.139v.879H49.5V13.53h3.39v1H48.5V7h4.395Z" transform="translate(-39.585 -6.874)"/><path class="b" d="M55.939,14.534h-1V7.879H52.8V7h5.274v.879H55.939Z" transform="translate(-38.485 -6.874)"/><path class="b" d="M59.9,14.534V7h1v7.534Z" transform="translate(-36.67 -6.874)"/><path class="b" d="M64.739,14.534h-1V7.879H61.6V7h5.148v.879H64.614v6.655Z" transform="translate(-36.235 -6.874)"/><path class="b" d="M74.955,13.555A3.893,3.893,0,0,1,68.3,10.793a3.893,3.893,0,1,1,7.785,0A3.692,3.692,0,0,1,74.955,13.555Zm-4.772-.628a2.963,2.963,0,0,0,2.009.879,2.5,2.5,0,0,0,2.009-.879,3.029,3.029,0,0,0,.879-2.135A2.587,2.587,0,0,0,74.2,8.658a2.963,2.963,0,0,0-2.009-.879,2.5,2.5,0,0,0-2.009.879,3.029,3.029,0,0,0-.879,2.135A2.587,2.587,0,0,0,70.184,12.927Z" transform="translate(-34.522 -6.9)"/><path class="b" d="M75.6,14.534V7h1.13l3.641,5.9h0V7h1v7.534h-1L76.479,8.381h0v6.153Z" transform="translate(-32.655 -6.874)"/></g><path class="c" d="M75,23a5.283,5.283,0,0,0-5.4,5.4A5.359,5.359,0,0,0,75,33.8a5.283,5.283,0,0,0,5.4-5.4A5.209,5.209,0,0,0,75,23Zm0,8.539a3.117,3.117,0,0,1-3.014-3.265A3.117,3.117,0,0,1,75,25.011a3.042,3.042,0,0,1,3.014,3.265A3.117,3.117,0,0,1,75,31.54ZM63.326,23a5.283,5.283,0,0,0-5.4,5.4,5.359,5.359,0,0,0,5.4,5.4,5.283,5.283,0,0,0,5.4-5.4A5.209,5.209,0,0,0,63.326,23Zm0,8.539a3.117,3.117,0,0,1-3.014-3.265,3.117,3.117,0,0,1,3.014-3.265,3.042,3.042,0,0,1,3.014,3.265A3.117,3.117,0,0,1,63.326,31.54ZM49.388,24.634v2.26h5.4a4.748,4.748,0,0,1-1.256,2.888,5.558,5.558,0,0,1-4.144,1.632,5.846,5.846,0,0,1-5.9-6.027,5.923,5.923,0,0,1,5.9-6.027,6.226,6.226,0,0,1,4.144,1.632l1.632-1.632a8.046,8.046,0,0,0-5.651-2.26A8.471,8.471,0,0,0,41.1,25.388a8.471,8.471,0,0,0,8.413,8.288,7.226,7.226,0,0,0,5.776-2.386A7.559,7.559,0,0,0,57.3,26.015a4.708,4.708,0,0,0-.126-1.381ZM106.4,26.392a4.879,4.879,0,0,0-4.52-3.39,5.057,5.057,0,0,0-5.023,5.4,5.255,5.255,0,0,0,5.274,5.4,5.151,5.151,0,0,0,4.395-2.386l-1.758-1.256a3.061,3.061,0,0,1-2.637,1.507,2.724,2.724,0,0,1-2.637-1.632l7.157-3.014ZM99.113,28.15a3.05,3.05,0,0,1,2.763-3.139,2.221,2.221,0,0,1,2.009,1.13Zm-5.9,5.148H95.6V17.6H93.211Zm-3.767-9.167h0a4.134,4.134,0,0,0-2.888-1.256,5.4,5.4,0,0,0-5.148,5.4,5.2,5.2,0,0,0,5.148,5.274,3.605,3.605,0,0,0,2.763-1.256h.126v.753c0,2.009-1.13,3.139-2.888,3.139A2.79,2.79,0,0,1,83.919,34.3l-2.009.879a5.18,5.18,0,0,0,4.772,3.139c2.763,0,5.023-1.632,5.023-5.525V23.253h-2.26ZM86.681,31.54a3.117,3.117,0,0,1-3.014-3.265,3.117,3.117,0,0,1,3.014-3.265,3.021,3.021,0,0,1,2.888,3.265A3.021,3.021,0,0,1,86.681,31.54ZM117.32,17.6H111.67V33.3h2.386V27.4h3.265a4.9,4.9,0,1,0,0-9.794Zm.126,7.534h-3.39v-5.4h3.39a2.758,2.758,0,0,1,2.763,2.637A2.874,2.874,0,0,1,117.446,25.136Zm14.44-2.26a4.221,4.221,0,0,0-4.144,2.386l2.135.879a2.218,2.218,0,0,1,2.135-1.13,2.36,2.36,0,0,1,2.511,2.009v.126a4.981,4.981,0,0,0-2.386-.628c-2.26,0-4.52,1.256-4.52,3.516a3.679,3.679,0,0,0,3.893,3.516,3.534,3.534,0,0,0,3.014-1.507h.126V33.3h2.26V27.271A4.752,4.752,0,0,0,131.886,22.876Zm-.251,8.664c-.753,0-1.884-.377-1.884-1.381,0-1.256,1.381-1.632,2.511-1.632a4.856,4.856,0,0,1,2.135.5A2.924,2.924,0,0,1,131.635,31.54Zm13.185-8.288-2.637,6.781h-.126l-2.763-6.781h-2.511l4.144,9.543-2.386,5.274h2.386l6.4-14.817ZM123.724,33.3h2.386V17.6h-2.386Z" transform="translate(10.509 4.372)"/><g transform="translate(12.557 8.975)"><path class="d" d="M10.5,7.5A2.455,2.455,0,0,0,10,9.258V37.009a2.484,2.484,0,0,0,.628,1.758l.126.126,15.571-15.57v-.251L10.5,7.5Z" transform="translate(-10 -7.057)"/><path class="e" d="M28.048,26.473,22.9,21.325v-.377L28.048,15.8l.126.126,6.153,3.516c1.758,1,1.758,2.637,0,3.641l-6.278,3.39Z" transform="translate(-6.702 -4.935)"/><path class="f" d="M31.37,25.274,26.1,20,10.4,35.7c.628.628,1.507.628,2.637.126L31.37,25.274" transform="translate(-9.898 -3.861)"/><path class="g" d="M31.37,18.006,13.037,7.584A2.035,2.035,0,0,0,10.4,7.71L26.1,23.28Z" transform="translate(-9.898 -7.141)"/><g transform="translate(0 21.287)"><path class="h" d="M31.244,24.1,13.037,34.4a2.053,2.053,0,0,1-2.511,0h0l-.126.126h0l.126.126h0a2.053,2.053,0,0,0,2.511,0L31.244,24.1Z" transform="translate(-9.898 -24.1)"/><path class="i" d="M10.5,32.658A2.455,2.455,0,0,1,10,30.9v.126a2.484,2.484,0,0,0,.628,1.758v-.126Z" transform="translate(-10 -22.361)"/></g><path class="i" d="M33.278,21.632,27,25.148l.126.126,6.153-3.516A2.087,2.087,0,0,0,34.534,20h0C34.534,20.628,34.032,21.13,33.278,21.632Z" transform="translate(-5.653 -3.861)"/><path class="j" d="M13.139,7.716,37.625,21.654c.753.5,1.256,1,1.256,1.632h0a2.087,2.087,0,0,0-1.256-1.758L13.139,7.59C11.381,6.586,10,7.339,10,9.348v.126C10,7.59,11.381,6.711,13.139,7.716Z" transform="translate(-10 -7.147)"/></g></svg>