<svg xmlns="http://www.w3.org/2000/svg" xmlns:xlink="http://www.w3.org/1999/xlink" viewBox="0 0 168.953 66.868"><defs><style>.a{fill:#fff;}.b{fill:#2ca01c;}.c{fill:#365ebf;}.d{filter:url(#a);}</style><filter id="a" x="0" y="0" width="168.953" height="66.868" filterUnits="userSpaceOnUse"><feOffset dy="3" input="SourceAlpha"/><feGaussianBlur stdDeviation="3" result="b"/><feFlood flood-opacity="0.302"/><feComposite operator="in" in2="b"/><feComposite in="SourceGraphic"/></filter></defs><g transform="translate(9 6)"><g class="d" transform="matrix(1, 0, 0, 1, -9, -6)"><path class="a" d="M10.522,49.768H9.371a8.287,8.287,0,0,1-2.431-.256,10.805,10.805,0,0,1-2.175-.64,9.081,9.081,0,0,1-1.791-1.279A5.766,5.766,0,0,1,1.7,45.8a5.435,5.435,0,0,1-.64-2.175A19.709,19.709,0,0,1,.8,41.2V9.343a8.724,8.724,0,0,1,.256-2.431,13.318,13.318,0,0,1,.768-2.047A9.081,9.081,0,0,1,3.1,3.075,9.081,9.081,0,0,1,4.894,1.8a6.135,6.135,0,0,1,2.175-.64A7.477,7.477,0,0,1,9.371.9H143.182a8.724,8.724,0,0,1,2.431.256,13.978,13.978,0,0,1,2.175.64,9.081,9.081,0,0,1,1.791,1.279,5.766,5.766,0,0,1,1.279,1.791,6.318,6.318,0,0,1,.64,2.047,15.674,15.674,0,0,1,.256,2.431V41.2a17.48,17.48,0,0,1-.256,2.431,10.8,10.8,0,0,1-.64,2.175,9.08,9.08,0,0,1-1.279,1.791,5.766,5.766,0,0,1-1.791,1.279,5.435,5.435,0,0,1-2.175.64c-.768.128-1.663.128-2.431.256H10.522Z" transform="translate(8.2 5.1)"/></g><g transform="translate(17.351 6.778)"><circle class="a" cx="10.943" cy="10.943" r="10.943" transform="translate(2.189 1.744)"/><g transform="translate(0 0)"><path class="b" d="M12.7-.006A12.686,12.686,0,1,1-.006,12.808,12.636,12.636,0,0,1,12.7-.006Zm.624,17.716a39.369,39.369,0,0,0,4.347-.188,4.84,4.84,0,0,0,4.021-4.714,4.792,4.792,0,0,0-1.2-3.377,4.96,4.96,0,0,0-4.219-1.782V9.283c.357.05.683.079,1,.139a3.284,3.284,0,0,1,1.238,5.961c-1.079.772-2.268.535-3.476.574V5.2h-1.7C13.323,9.372,13.323,13.491,13.323,17.71Zm-1.258,2.4V7.669c-1.277,0-2.525-.01-3.773.01a3,3,0,0,0-.723.129,4.986,4.986,0,0,0,1.624,9.814v-1.6c-.386-.05-.763-.089-1.119-.149a3.261,3.261,0,0,1-2.07-5.021c.97-1.476,2.525-1.693,4.427-1.416V20.116C10.986,20.106,11.511,20.106,12.066,20.106Z" transform="translate(0.006 0.007)"/><path d="M305.173,111.4h2.3c.673,0,.673,0,.673.654v.564a3.73,3.73,0,0,1-.406.05c-2.149,0-4.288.02-6.437-.01a6.269,6.269,0,0,1-6.209-6.2,6.183,6.183,0,0,1,5.268-6.506,6.3,6.3,0,0,1,6.655,2.872,6.2,6.2,0,0,1-.287,7.08A14.844,14.844,0,0,1,305.173,111.4Zm-3.684-.119a5.033,5.033,0,0,0,.04-10.061,5.034,5.034,0,0,0-.04,10.061Z" transform="translate(-265.868 -89.954)"/><path d="M716,115.69V103.242a2.072,2.072,0,0,1,.337-.04c1.317,0,2.634-.03,3.961.01a4.307,4.307,0,0,1,2.7.911,2.865,2.865,0,0,1-.574,4.694c-.188.1-.386.178-.644.287a3.191,3.191,0,0,1,2.317,1.406c1.268,1.981.149,4.387-2.3,4.941a9.007,9.007,0,0,1-1.852.218C718.654,115.71,717.357,115.69,716,115.69Zm1.476-1.386c.98,0,1.9.03,2.822-.01a4.472,4.472,0,0,0,1.337-.277,1.9,1.9,0,0,0,1.367-1.9,2.052,2.052,0,0,0-1.505-2.03,14.807,14.807,0,0,0-4.03-.238C717.476,111.353,717.476,112.8,717.476,114.3Zm.01-9.645v3.773c1.05,0,2.07.079,3.08-.02a1.794,1.794,0,0,0,1.782-1.763,1.664,1.664,0,0,0-1.674-1.961A24.372,24.372,0,0,0,717.485,104.658Z" transform="translate(-645.096 -92.972)"/><path d="M1009.562,108c-1.278,1.208-2.555,2.406-3.882,3.654,1.446,1.476,2.872,2.941,4.4,4.486-.723,0-1.327.01-1.921-.01-.119,0-.248-.139-.347-.238q-1.753-1.842-3.506-3.7c-.089-.1-.168-.2-.347-.416v4.347H1002.6V103.7h1.317v7.793c.158-.119.257-.188.347-.267,1.02-.98,2.05-1.961,3.05-2.961a1.075,1.075,0,0,1,.911-.366c.426.03.852.01,1.287.01C1009.522,107.928,1009.542,107.958,1009.562,108Z" transform="translate(-903.314 -93.43)"/><path d="M636.4,103.4h1.337v7.853a36.143,36.143,0,0,0,2.7-2.624,2.727,2.727,0,0,1,2.951-.931c-1.3,1.228-2.585,2.436-3.912,3.684,1.446,1.476,2.862,2.931,4.377,4.486-.723,0-1.337.02-1.951-.01-.129-.01-.258-.188-.366-.3q-1.723-1.812-3.436-3.634a.757.757,0,0,0-.347-.257v4.189H636.4Z" transform="translate(-573.378 -93.16)"/><path d="M909.656,143.9a4.344,4.344,0,1,1-4.456,4.337A4.212,4.212,0,0,1,909.656,143.9Zm2.941,4.337a2.959,2.959,0,1,0-2.971,3.1A2.947,2.947,0,0,0,912.6,148.237Z" transform="translate(-815.56 -129.649)"/><path d="M813.645,144a4.339,4.339,0,1,1-4.446,4.278A4.231,4.231,0,0,1,813.645,144Zm-2.971,4.308a2.954,2.954,0,1,0,2.991-3.06A2.949,2.949,0,0,0,810.674,148.306Z" transform="translate(-729.065 -129.738)"/><path d="M443.93,146.2h1.386v8.209h-1.208c-.03-.386-.059-.772-.1-1.238-.129.168-.208.277-.3.386a3.3,3.3,0,0,1-5.011-.069,3.678,3.678,0,0,1-.574-1.743c-.069-1.822-.03-3.654-.03-5.516h1.357v3.763a15.667,15.667,0,0,0,.049,1.674,1.678,1.678,0,0,0,1.3,1.664,2.257,2.257,0,0,0,2.585-.961,4.621,4.621,0,0,0,.505-1.773c.079-1.277.03-2.575.03-3.852C443.93,146.566,443.93,146.408,443.93,146.2Z" transform="translate(-394.703 -131.721)"/><path d="M1078.958,145.451c-.406.267-.743.5-1.129.753a1.963,1.963,0,0,0-1.575-.941,2.885,2.885,0,0,0-1.267.267,1.191,1.191,0,0,0-.535.852,1.116,1.116,0,0,0,.584.753,7.9,7.9,0,0,0,1.446.446,13.734,13.734,0,0,1,1.416.426,2.354,2.354,0,0,1,.634,3.8c-1.119,1.079-4.377,1.277-5.585-.337-.079-.1-.149-.208-.248-.347.366-.287.713-.555,1.079-.842a2.446,2.446,0,0,0,1.921,1.079,4.4,4.4,0,0,0,1.386-.257.986.986,0,0,0,.644-1.01.938.938,0,0,0-.664-.941c-.555-.208-1.129-.327-1.693-.5a8.091,8.091,0,0,1-.98-.317,2.088,2.088,0,0,1-.545-3.615,3.723,3.723,0,0,1,4.783.238C1078.731,145.1,1078.83,145.273,1078.958,145.451Z" transform="translate(-966.472 -129.715)"/><path d="M858.663,272.29a15.165,15.165,0,0,1-.693,2.337,3.74,3.74,0,0,1-4.357,1.921,3.669,3.669,0,0,1-2.921-3.525,5.376,5.376,0,0,1,.465-2.892,3.676,3.676,0,0,1,4.04-2c2.179.307,3.337,1.743,3.327,4.12A1.013,1.013,0,0,0,858.663,272.29Zm-6.882.277c.03.208.049.564.129.921a2.516,2.516,0,0,0,2.555,2.159,2.417,2.417,0,0,0,2.693-1.832,4.486,4.486,0,0,0,.109-2.723,2.714,2.714,0,0,0-3.971-1.7C852.1,270.052,851.83,271.181,851.781,272.567Z" transform="translate(-766.428 -241.531)"/><path d="M559.4,145.09c-.366.327-.713.624-1.079.941a2.753,2.753,0,0,0-2.971-.881c-1.594.406-2.08,2.2-1.911,3.387a3.043,3.043,0,0,0,1.218,2.179,2.759,2.759,0,0,0,3.684-.525c.327.3.654.594.97.891-.584,1.03-2.466,1.614-4.05,1.287a4.04,4.04,0,0,1-3.317-3.832,4.293,4.293,0,0,1,2.387-4.387A4.528,4.528,0,0,1,559.4,145.09Z" transform="translate(-497.264 -129.522)"/><path d="M1121.348,294.672h-4.219a1.725,1.725,0,0,0,1.05,1.911,1.658,1.658,0,0,0,2.05-.852c.257-.515.654-.178.98-.277.129.644-.7,1.545-1.268,1.792a2.66,2.66,0,0,1-3.852-2.04,3.614,3.614,0,0,1,.515-2.793,2.625,2.625,0,0,1,2.872-1.05,2.443,2.443,0,0,1,1.872,2.228C1121.378,293.929,1121.348,294.266,1121.348,294.672Zm-1-.822c-.119-1.188-.673-1.733-1.683-1.7a1.63,1.63,0,0,0-1.535,1.7Z" transform="translate(-1005.495 -262.428)"/><path class="c" d="M325.41,23.851a11.831,11.831,0,0,1,1.812-.376,1.432,1.432,0,0,1,1.565,1.476c.04,1.149.01,2.307.02,3.466,0,.287-.139.376-.4.376-.149,0-.3-.01-.446,0-.347.02-.465-.149-.456-.485.01-.921.01-1.842,0-2.773-.01-.8-.4-1.089-1.178-.9-.723.178-.891.386-.891,1.1,0,.862-.02,1.713.01,2.575.02.485-.267.485-.6.475s-.713.079-.7-.485c.02-1.367,0-2.733.01-4.11,0-.238-.119-.614.287-.614C324.8,23.584,325.3,23.316,325.41,23.851Z" transform="translate(-292.037 -21.147)"/><path class="c" d="M433.079,28.919a2.831,2.831,0,0,1-2.149.515,1.36,1.36,0,0,1-1.169-1.287c-.079-1.218-.059-2.436-.05-3.654,0-.119.218-.267.366-.337.119-.059.3,0,.436-.01.376-.04.485.139.485.5q-.015,1.381,0,2.763c0,.386.04.772.515.891a1.772,1.772,0,0,0,1.446-.456.989.989,0,0,0,.04-.386c0-.941.03-1.882-.01-2.812-.02-.564.337-.485.683-.5s.644-.05.624.485c-.03,1.4-.01,2.8-.01,4.2,0,.238.059.555-.327.525C433.643,29.345,433.138,29.6,433.079,28.919Z" transform="translate(-387.149 -21.739)"/><path d="M947.143,297.285h-.931c0-.673.01-1.327,0-1.981-.01-.713.01-1.416-.059-2.119a1.057,1.057,0,0,0-1.347-1.01,1.519,1.519,0,0,0-1.357,1.357c-.059.8-.049,1.614-.069,2.416-.01.426,0,.852,0,1.317h-.98v-5.11c0-.862.01-.871.921-.7.02.208.04.436.059.723a2.464,2.464,0,0,1,2.3-.871,1.479,1.479,0,0,1,1.446,1.436C947.193,294.245,947.143,295.75,947.143,297.285Z" transform="translate(-849.076 -262.427)"/><path d="M1061.183,297.207h-.97c0-1.119.01-2.228,0-3.327a4.922,4.922,0,0,0-.079-.931.975.975,0,0,0-1.04-.862,1.556,1.556,0,0,0-1.654,1.426c-.059.772-.049,1.545-.059,2.317-.01.446,0,.881,0,1.357h-.98v-5.12c0-.842.03-.871.931-.693.01.208.02.416.04.7.139-.119.248-.208.346-.3a2.177,2.177,0,0,1,3.159.158,2.036,2.036,0,0,1,.307.97C1061.2,294.346,1061.183,295.762,1061.183,297.207Z" transform="translate(-951.786 -262.349)"/><path d="M527.727,154.59H526.4V146.4h1.327Z" transform="translate(-474.271 -131.902)"/><path class="c" d="M513.551,25.566h-1.1c-.505.01-.347-.376-.366-.634s-.069-.545.357-.535c1.168.02,2.337.01,3.506,0,.386,0,.376.248.357.5-.02.267.139.654-.347.663-.357.01-.713,0-1.119,0,0,1.188.01,2.317-.01,3.446,0,.188-.079.525-.168.545a2.9,2.9,0,0,1-1.01-.03c-.059-.01-.1-.287-.1-.436C513.541,27.943,513.551,26.794,513.551,25.566Z" transform="translate(-461.363 -21.981)"/><path class="c" d="M379.492,25.476c-.416,0-.743-.01-1.069,0-.5.03-.4-.317-.4-.6,0-.267-.089-.574.376-.574,1.149.02,2.307.02,3.456,0,.436-.01.376.277.357.535s.149.644-.366.644h-1.06v1.386c0,.723-.01,1.446.01,2.179.01.366-.139.5-.5.505-.812.02-.822.02-.822-.792C379.492,27.675,379.492,26.605,379.492,25.476Z" transform="translate(-340.583 -21.891)"/><path d="M1007.111,278.761h-.911V270.7h.911Z" transform="translate(-906.558 -243.893)"/><path class="c" d="M298.837,26.96c0,.713-.01,1.416,0,2.129.01.515-.317.485-.663.485s-.673.059-.673-.465q.015-2.154,0-4.308c0-.337.109-.5.456-.456a2.234,2.234,0,0,0,.446,0c.337-.03.436.139.426.446C298.827,25.514,298.837,26.237,298.837,26.96Z" transform="translate(-268.039 -21.929)"/><path class="c" d="M489.8,26.787c0-.693.02-1.386-.01-2.08-.02-.406.129-.545.515-.5a1.353,1.353,0,0,0,.347,0c.347-.04.456.119.446.465-.01,1.416-.03,2.832,0,4.248.01.545-.317.505-.673.515-.386.01-.673-.01-.644-.535C489.83,28.2,489.8,27.5,489.8,26.787Z" transform="translate(-441.276 -21.806)"/><path d="M1032.631,299.2l-.248.03h-.683V293.4h.931Z" transform="translate(-929.533 -264.345)"/><path class="c" d="M526.953,2.8a.731.731,0,0,1-.792.743.778.778,0,0,1-.763-.8A.765.765,0,0,1,526.21,2,.739.739,0,0,1,526.953,2.8Z" transform="translate(-473.368 -1.799)"/><path class="c" d="M392.11,2.1a.749.749,0,0,1,.763.782.776.776,0,0,1-.792.763.806.806,0,0,1-.782-.792A.779.779,0,0,1,392.11,2.1Z" transform="translate(-352.548 -1.889)"/><path d="M1031.7,270.7h.941v1.07h-.941Z" transform="translate(-929.533 -243.893)"/><path d="M1151.347,211.2a1.136,1.136,0,0,1,1.178,1.139,1.16,1.16,0,0,1-1.169,1.149,1.127,1.127,0,0,1-1.159-1.149A1.089,1.089,0,0,1,1151.347,211.2Zm.02,2.119a.987.987,0,0,0,.98-.97,1.028,1.028,0,0,0-1.01-1.01.986.986,0,0,0-.961,1.04A.94.94,0,0,0,1151.367,213.319Z" transform="translate(-1036.296 -190.285)"/><path d="M1157.9,216.707V215.4a4.761,4.761,0,0,1,.871.267c.04.02-.079.366-.129.564-.04,0-.079-.01-.129-.01.1.158.188.327.287.485a.426.426,0,0,1-.069.059c-.188-.208-.366-.416-.644-.723-.059.307-.089.485-.119.663Zm.248-1.2c-.059.069-.129.139-.188.208.1.119.188.3.307.327.1.02.248-.139.366-.218C1158.474,215.727,1158.306,215.618,1158.148,215.509Z" transform="translate(-1043.235 -194.069)"/></g></g></g></svg>