<svg xmlns="http://www.w3.org/2000/svg" xmlns:xlink="http://www.w3.org/1999/xlink" viewBox="0 0 182.784 66.825"><defs><style>.a,.i{fill:#fff;}.b{stroke:#fff;stroke-miterlimit:10;stroke-width:0.2px;}.c{fill:url(#c);}.d{fill:url(#d);}.e{fill:url(#e);}.f{fill:url(#f);}.g{opacity:0.2;}.h{opacity:0.12;}.i{opacity:0.25;}.j{filter:url(#a);}</style><filter id="a" x="0" y="0" width="182.784" height="66.825" filterUnits="userSpaceOnUse"><feOffset dy="3" input="SourceAlpha"/><feGaussianBlur stdDeviation="3" result="b"/><feFlood flood-opacity="0.302"/><feComposite operator="in" in2="b"/><feComposite in="SourceGraphic"/></filter><linearGradient id="c" x1="0.908" y1="6.632" x2="-0.383" y2="5.96" gradientUnits="objectBoundingBox"><stop offset="0" stop-color="#00a0ff"/><stop offset="0.007" stop-color="#00a1ff"/><stop offset="0.26" stop-color="#00beff"/><stop offset="0.512" stop-color="#00d2ff"/><stop offset="0.76" stop-color="#00dfff"/><stop offset="1" stop-color="#00e3ff"/></linearGradient><linearGradient id="d" x1="1.077" y1="17.2" x2="-1.307" y2="17.2" gradientUnits="objectBoundingBox"><stop offset="0" stop-color="#ffe000"/><stop offset="0.409" stop-color="#ffbd00"/><stop offset="0.775" stop-color="orange"/><stop offset="1" stop-color="#ff9c00"/></linearGradient><linearGradient id="e" x1="0.864" y1="10.839" x2="-0.499" y2="9.074" gradientUnits="objectBoundingBox"><stop offset="0" stop-color="#ff3a44"/><stop offset="1" stop-color="#c31162"/></linearGradient><linearGradient id="f" x1="-0.186" y1="13.614" x2="0.423" y2="12.822" gradientUnits="objectBoundingBox"><stop offset="0" stop-color="#32a071"/><stop offset="0.068" stop-color="#2da771"/><stop offset="0.476" stop-color="#15cf74"/><stop offset="0.801" stop-color="#06e775"/><stop offset="1" stop-color="#00f076"/></linearGradient></defs><g transform="translate(-1226 -500.175)"><g transform="translate(1235 506.175)"><g class="j" transform="matrix(1, 0, 0, 1, -9, -6)"><path class="a" d="M158.681,48.825H6.1a6.121,6.121,0,0,1-6.1-6.1V6.1A6.121,6.121,0,0,1,6.1,0H158.681a6.121,6.121,0,0,1,6.1,6.1V42.722A6.044,6.044,0,0,1,158.681,48.825Z" transform="translate(9 6)"/></g><g transform="translate(50.534 8.422)"><path class="b" d="M48.724,10.928a3.325,3.325,0,0,1-.854,2.441A3.784,3.784,0,0,1,41.4,10.684,3.751,3.751,0,0,1,45.184,6.9a3.25,3.25,0,0,1,1.465.366,2.658,2.658,0,0,1,1.1.854l-.61.61a2.276,2.276,0,0,0-1.953-.854,2.429,2.429,0,0,0-1.953.854,2.514,2.514,0,0,0-.854,2.075,2.514,2.514,0,0,0,.854,2.075,3.143,3.143,0,0,0,1.953.854,2.677,2.677,0,0,0,2.075-.854,2.021,2.021,0,0,0,.61-1.465H45.184V10.44h3.54Z" transform="translate(-41.4 -6.9)"/><path class="b" d="M52.772,7.854h-3.3v2.319h3.052v.854H49.476v2.319h3.3v.976H48.5V7h4.272Z" transform="translate(-39.834 -6.878)"/><path class="b" d="M55.852,14.324h-.976V7.854H52.8V7h5.127v.854H55.852Z" transform="translate(-38.885 -6.878)"/><path class="b" d="M59.9,14.324V7h.976v7.324Z" transform="translate(-37.319 -6.878)"/><path class="b" d="M64.652,14.324h-.977V7.854H61.6V7h5v.854H64.529v6.469Z" transform="translate(-36.943 -6.878)"/><path class="b" d="M74.769,13.369A3.784,3.784,0,0,1,68.3,10.684a3.784,3.784,0,1,1,7.568,0A3.589,3.589,0,0,1,74.769,13.369Zm-4.638-.61a2.88,2.88,0,0,0,1.953.854,2.429,2.429,0,0,0,1.953-.854,2.945,2.945,0,0,0,.854-2.075,2.514,2.514,0,0,0-.854-2.075,2.881,2.881,0,0,0-1.953-.854,2.429,2.429,0,0,0-1.953.854,2.945,2.945,0,0,0-.854,2.075A2.514,2.514,0,0,0,70.131,12.759Z" transform="translate(-35.465 -6.9)"/><path class="b" d="M75.6,14.324V7h1.1l3.54,5.737h0V7h.977v7.324h-.977L76.454,8.343h0v5.981Z" transform="translate(-33.855 -6.878)"/></g><path d="M74.057,22.837a5.135,5.135,0,0,0-5.249,5.249,5.21,5.21,0,0,0,5.249,5.249,5.135,5.135,0,0,0,5.249-5.249A5.064,5.064,0,0,0,74.057,22.837Zm0,8.3a3.03,3.03,0,0,1-2.929-3.174,3.03,3.03,0,0,1,2.929-3.174,2.957,2.957,0,0,1,2.929,3.174A3.03,3.03,0,0,1,74.057,31.137ZM62.7,22.837a5.135,5.135,0,0,0-5.249,5.249A5.21,5.21,0,0,0,62.7,33.334a5.135,5.135,0,0,0,5.249-5.249A5.064,5.064,0,0,0,62.7,22.837Zm0,8.3a3.03,3.03,0,0,1-2.929-3.174A3.03,3.03,0,0,1,62.7,24.79a2.957,2.957,0,0,1,2.93,3.174A3.03,3.03,0,0,1,62.7,31.137ZM49.156,24.424v2.2H54.4a4.616,4.616,0,0,1-1.221,2.807,5.4,5.4,0,0,1-4.028,1.587,5.683,5.683,0,0,1-5.737-5.859A5.758,5.758,0,0,1,49.156,19.3a6.052,6.052,0,0,1,4.028,1.587L54.771,19.3a7.822,7.822,0,0,0-5.493-2.2A8.234,8.234,0,0,0,41.1,25.156a8.234,8.234,0,0,0,8.178,8.056,7.025,7.025,0,0,0,5.615-2.319,7.348,7.348,0,0,0,1.953-5.127,4.577,4.577,0,0,0-.122-1.343Zm55.416,1.709a4.743,4.743,0,0,0-4.394-3.3A4.916,4.916,0,0,0,95.3,28.086a5.108,5.108,0,0,0,5.127,5.249,5.007,5.007,0,0,0,4.272-2.319l-1.709-1.221a2.975,2.975,0,0,1-2.563,1.465,2.648,2.648,0,0,1-2.563-1.587l6.958-2.929Zm-7.08,1.709a2.965,2.965,0,0,1,2.685-3.052,2.159,2.159,0,0,1,1.953,1.1Zm-5.737,5h2.319V17.588H91.756Zm-3.662-8.911h0a4.019,4.019,0,0,0-2.807-1.221,5.245,5.245,0,0,0-5,5.249,5.054,5.054,0,0,0,5,5.127,3.5,3.5,0,0,0,2.685-1.221h.122V32.6c0,1.953-1.1,3.052-2.807,3.052a2.712,2.712,0,0,1-2.563-1.831l-1.953.854a5.036,5.036,0,0,0,4.638,3.052c2.685,0,4.882-1.587,4.882-5.371V23.081h-2.2v.854Zm-2.685,7.2a3.03,3.03,0,0,1-2.93-3.174,3.03,3.03,0,0,1,2.93-3.174,2.937,2.937,0,0,1,2.807,3.174A2.937,2.937,0,0,1,85.409,31.137Zm29.783-13.549H109.7V32.846h2.319V27.109h3.174a4.766,4.766,0,1,0,0-9.521Zm.122,7.324h-3.3V19.663h3.3A2.681,2.681,0,0,1,118,22.227,2.793,2.793,0,0,1,115.314,24.912Zm14.037-2.2a4.1,4.1,0,0,0-4.028,2.319l2.075.854a2.156,2.156,0,0,1,2.075-1.1,2.294,2.294,0,0,1,2.441,1.953v.122a4.842,4.842,0,0,0-2.319-.61c-2.2,0-4.394,1.221-4.394,3.418a3.576,3.576,0,0,0,3.784,3.418,3.435,3.435,0,0,0,2.93-1.465h.122v1.221h2.2V26.987A4.619,4.619,0,0,0,129.351,22.715Zm-.244,8.422c-.732,0-1.831-.366-1.831-1.343,0-1.221,1.343-1.587,2.441-1.587a4.72,4.72,0,0,1,2.075.488A2.843,2.843,0,0,1,129.107,31.137Zm12.816-8.056-2.563,6.591h-.122l-2.685-6.591h-2.441l4.028,9.277-2.319,5.127h2.319l6.225-14.4Zm-20.506,9.765h2.319V17.588h-2.319Z" transform="translate(8.068 3.773)"/><g transform="translate(12.206 8.724)"><path class="c" d="M10.488,7.5A2.386,2.386,0,0,0,10,9.209V36.185a2.415,2.415,0,0,0,.61,1.709l.122.122L25.868,22.88v-.244L10.488,7.5Z" transform="translate(-10 -7.069)"/><path class="d" d="M27.9,26.175l-5-5V20.8l5-5,.122.122,5.981,3.418c1.709.976,1.709,2.563,0,3.54l-6.1,3.3Z" transform="translate(-7.154 -5.238)"/><path class="e" d="M30.784,25.127,25.658,20,10.4,35.258c.61.61,1.465.61,2.563.122L30.784,25.127" transform="translate(-9.912 -4.312)"/><path class="f" d="M30.784,17.7,12.963,7.573a1.978,1.978,0,0,0-2.563.122L25.658,22.83Z" transform="translate(-9.912 -7.142)"/><g transform="translate(0 20.693)"><path class="g" d="M30.662,24.1l-17.7,10.009a2,2,0,0,1-2.441,0h0l-.122.122h0l.122.122h0a2,2,0,0,0,2.441,0L30.662,24.1Z" transform="translate(-9.912 -24.1)"/><path class="h" d="M10.488,32.609A2.386,2.386,0,0,1,10,30.9v.122a2.415,2.415,0,0,0,.61,1.709v-.122Z" transform="translate(-10 -22.6)"/></g><path class="h" d="M33.1,21.587,27,25l.122.122L33.1,21.709A2.029,2.029,0,0,0,34.324,20h0C34.324,20.61,33.835,21.1,33.1,21.587Z" transform="translate(-6.249 -4.312)"/><path class="i" d="M13.052,7.7l23.8,13.549c.732.488,1.221.976,1.221,1.587h0a2.029,2.029,0,0,0-1.221-1.709L13.052,7.578C11.343,6.6,10,7.334,10,9.287v.122C10,7.578,11.343,6.723,13.052,7.7Z" transform="translate(-10 -7.147)"/></g></g></g></svg>