<svg xmlns="http://www.w3.org/2000/svg" xmlns:xlink="http://www.w3.org/1999/xlink" viewBox="0 0 1920 732"><defs><style>.a{fill:url(#a);}.b{fill:url(#b);}.c{opacity:0.27;clip-path:url(#c);}.aa,.ab,.ac,.ad,.ae,.af,.ag,.ah,.ai,.aj,.ak,.al,.am,.an,.ao,.ap,.aq,.ar,.as,.at,.au,.av,.aw,.ax,.ay,.az,.ba,.bb,.bc,.bd,.be,.bf,.bg,.bh,.bi,.bj,.bk,.bl,.bm,.bn,.bo,.bp,.bq,.br,.bs,.bt,.bu,.bv,.bw,.bx,.by,.bz,.ca,.cb,.cc,.cd,.ce,.cf,.cg,.ch,.ci,.cj,.ck,.cl,.cm,.cn,.co,.cp,.cq,.cr,.cs,.ct,.cu,.cv,.cw,.cx,.cy,.cz,.d,.da,.db,.dc,.dd,.de,.df,.dg,.dh,.di,.dj,.dk,.dl,.dm,.dn,.do,.dp,.dq,.dr,.ds,.dt,.du,.dv,.dw,.dx,.dy,.dz,.e,.ea,.eb,.ec,.ed,.ee,.ef,.eg,.eh,.ei,.ej,.ek,.el,.em,.en,.eo,.ep,.eq,.f,.g,.h,.i,.j,.k,.l,.m,.n,.o,.p,.q,.r,.s,.t,.u,.v,.w,.x,.y,.z{fill:none;stroke-miterlimit:10;}.d{stroke:#0c6;}.e{stroke:#01cb66;}.f{stroke:#01ca66;}.g{stroke:#02c966;}.h{stroke:#02c865;}.i{stroke:#03c665;}.j{stroke:#03c565;}.k{stroke:#04c465;}.l{stroke:#05c365;}.m{stroke:#05c265;}.n{stroke:#06c165;}.o{stroke:#06c064;}.p{stroke:#07bf64;}.q{stroke:#07be64;}.r{stroke:#08bc64;}.s{stroke:#09bb64;}.t{stroke:#09ba64;}.u{stroke:#0ab963;}.v{stroke:#0ab863;}.w{stroke:#0bb763;}.x{stroke:#0bb663;}.y{stroke:#0cb563;}.z{stroke:#0db463;}.aa{stroke:#0db363;}.ab{stroke:#0eb162;}.ac{stroke:#0eb062;}.ad{stroke:#0faf62;}.ae{stroke:#0fae62;}.af{stroke:#10ad62;}.ag{stroke:#11ac62;}.ah{stroke:#11ab62;}.ai{stroke:#12aa61;}.aj{stroke:#12a961;}.ak{stroke:#13a761;}.al{stroke:#13a661;}.am{stroke:#14a561;}.an{stroke:#15a461;}.ao{stroke:#15a360;}.ap{stroke:#16a260;}.aq{stroke:#16a160;}.ar{stroke:#17a060;}.as{stroke:#179f60;}.at{stroke:#189d60;}.au{stroke:#199c60;}.av{stroke:#199b5f;}.aw{stroke:#1a9a5f;}.ax{stroke:#1a995f;}.ay{stroke:#1b985f;}.az{stroke:#1b975f;}.ba{stroke:#1c965f;}.bb{stroke:#1d955f;}.bc{stroke:#1d945e;}.bd{stroke:#1e925e;}.be{stroke:#1e915e;}.bf{stroke:#1f905e;}.bg{stroke:#1f8f5e;}.bh{stroke:#208e5e;}.bi{stroke:#218d5e;}.bj{stroke:#218c5d;}.bk{stroke:#228b5d;}.bl{stroke:#228a5d;}.bm{stroke:#23885d;}.bn{stroke:#23875d;}.bo{stroke:#24865d;}.bp{stroke:#24855c;}.bq{stroke:#25845c;}.br{stroke:#26835c;}.bs{stroke:#26825c;}.bt{stroke:#27815c;}.bu{stroke:#27805c;}.bv{stroke:#287e5c;}.bw{stroke:#287d5b;}.bx{stroke:#297c5b;}.by{stroke:#2a7b5b;}.bz{stroke:#2a7a5b;}.ca{stroke:#2b795b;}.cb{stroke:#2b785b;}.cc{stroke:#2c775b;}.cd{stroke:#2c765a;}.ce{stroke:#2d755a;}.cf{stroke:#2e735a;}.cg{stroke:#2e725a;}.ch{stroke:#2f715a;}.ci{stroke:#2f705a;}.cj{stroke:#306f5a;}.ck{stroke:#306e59;}.cl{stroke:#316d59;}.cm{stroke:#326c59;}.cn{stroke:#326b59;}.co{stroke:#336959;}.cp{stroke:#336859;}.cq{stroke:#346758;}.cr{stroke:#346658;}.cs{stroke:#356558;}.ct{stroke:#366458;}.cu{stroke:#366358;}.cv{stroke:#376258;}.cw{stroke:#376158;}.cx{stroke:#385f57;}.cy{stroke:#385e57;}.cz{stroke:#395d57;}.da{stroke:#3a5c57;}.db{stroke:#3a5b57;}.dc{stroke:#3b5a57;}.dd{stroke:#3b5957;}.de{stroke:#3c5856;}.df{stroke:#3c5756;}.dg{stroke:#3d5656;}.dh{stroke:#3e5456;}.di{stroke:#3e5356;}.dj{stroke:#3f5256;}.dk{stroke:#3f5155;}.dl{stroke:#405055;}.dm{stroke:#404f55;}.dn{stroke:#414e55;}.do{stroke:#424d55;}.dp{stroke:#424c55;}.dq{stroke:#434a55;}.dr{stroke:#434954;}.ds{stroke:#444854;}.dt{stroke:#444754;}.du{stroke:#454654;}.dv{stroke:#06c164;}.dw{stroke:#08bd64;}.dx{stroke:#0eb262;}.dy{stroke:#0fb062;}.dz{stroke:#10ae62;}.ea{stroke:#11aa61;}.eb{stroke:#12a861;}.ec{stroke:#14a461;}.ed{stroke:#15a260;}.ee{stroke:#1c955f;}.ef{stroke:#1d935e;}.eg{stroke:#287f5c;}.eh{stroke:#297d5b;}.ei{stroke:#30705a;}.ej{stroke:#316e59;}.ek{stroke:#336a59;}.el{stroke:#346859;}.em{stroke:#356458;}.en{stroke:#366258;}.eo{stroke:#376058;}.ep{stroke:#3d5556;}.eq{stroke:#3f5156;}.er{fill:url(#d);}.es{fill:#fff;opacity:0.03;}.et{fill:#00a553;}</style><linearGradient id="a" x1="-0.185" y1="-0.551" x2="0.883" y2="1.204" gradientUnits="objectBoundingBox"><stop offset="0" stop-color="#008754"/><stop offset="1" stop-color="#363854"/></linearGradient><radialGradient id="b" cx="0.316" cy="-0.042" r="1.798" gradientTransform="translate(0.196 0) scale(0.381 1.001)" xlink:href="#a"/><clipPath id="c"><path class="a" d="M0,0H1920V730.667H0Z"/></clipPath><radialGradient id="d" cx="0.316" cy="-0.042" r="1.798" gradientTransform="translate(0.196 0) scale(0.381 1.001)" gradientUnits="objectBoundingBox"><stop offset="0" stop-color="#008754" stop-opacity="0"/><stop offset="1" stop-color="#363854"/></radialGradient></defs><g transform="translate(5019 -39)"><g transform="translate(-5019 39)"><path class="b" d="M0,0H1920V730.667H0Z"/><g class="c"><g transform="translate(1936 1071.944) rotate(180)"><g transform="translate(0 0)"><line class="d" y2="1316.549"/><line class="e" y2="1316.549" transform="translate(16.104)"/><line class="f" y2="1316.549" transform="translate(32.306)"/><line class="g" y2="1316.549" transform="translate(48.41)"/><line class="h" y2="1316.549" transform="translate(64.514)"/><line class="i" y2="1316.549" transform="translate(80.618)"/><line class="j" y2="1316.549" transform="translate(96.819)"/><line class="k" y2="1316.549" transform="translate(112.923)"/><line class="l" y2="1316.549" transform="translate(129.027)"/><line class="m" y2="1316.549" transform="translate(145.229)"/><line class="n" y2="1316.549" transform="translate(161.333)"/><line class="o" y2="1316.549" transform="translate(177.437)"/><line class="p" y2="1316.549" transform="translate(193.541)"/><line class="q" y2="1316.549" transform="translate(209.742)"/><line class="r" y2="1316.549" transform="translate(225.846)"/><line class="s" y2="1316.549" transform="translate(241.95)"/><line class="t" y2="1316.549" transform="translate(258.152)"/><line class="u" y2="1316.549" transform="translate(274.256)"/><line class="v" y2="1316.549" transform="translate(290.36)"/><line class="w" y2="1316.549" transform="translate(306.464)"/><line class="x" y2="1316.549" transform="translate(322.666)"/><line class="y" y2="1316.549" transform="translate(338.77)"/><line class="z" y2="1316.549" transform="translate(354.874)"/><line class="aa" y2="1316.549" transform="translate(371.075)"/><line class="ab" y2="1316.549" transform="translate(387.179)"/><line class="ac" y2="1316.549" transform="translate(403.283)"/><line class="ad" y2="1316.549" transform="translate(419.485)"/><line class="ae" y2="1316.549" transform="translate(435.589)"/><line class="af" y2="1316.549" transform="translate(451.693)"/><line class="ag" y2="1316.549" transform="translate(467.797)"/><line class="ah" y2="1316.549" transform="translate(483.998)"/><line class="ai" y2="1316.549" transform="translate(500.102)"/><line class="aj" y2="1316.549" transform="translate(516.206)"/><line class="ak" y2="1316.549" transform="translate(532.408)"/><line class="al" y2="1316.549" transform="translate(548.512)"/><line class="am" y2="1316.549" transform="translate(564.616)"/><line class="an" y2="1316.549" transform="translate(580.72)"/><line class="ao" y2="1316.549" transform="translate(596.922)"/><line class="ap" y2="1316.549" transform="translate(613.026)"/><line class="aq" y2="1316.549" transform="translate(629.13)"/><line class="ar" y2="1316.549" transform="translate(645.331)"/><line class="as" y2="1316.549" transform="translate(661.435)"/><line class="at" y2="1316.549" transform="translate(677.539)"/><line class="au" y2="1316.549" transform="translate(693.643)"/><line class="av" y2="1316.549" transform="translate(709.845)"/><line class="aw" y2="1316.549" transform="translate(725.949)"/><line class="ax" y2="1316.549" transform="translate(742.053)"/><line class="ay" y2="1316.549" transform="translate(758.254)"/><line class="az" y2="1316.549" transform="translate(774.358)"/><line class="ba" y2="1316.549" transform="translate(790.462)"/><line class="bb" y2="1316.549" transform="translate(806.566)"/><line class="bc" y2="1316.549" transform="translate(822.768)"/><line class="bd" y2="1316.549" transform="translate(838.872)"/><line class="be" y2="1316.549" transform="translate(854.976)"/><line class="bf" y2="1316.549" transform="translate(871.178)"/><line class="bg" y2="1316.549" transform="translate(887.282)"/><line class="bh" y2="1316.549" transform="translate(903.385)"/><line class="bi" y2="1316.549" transform="translate(919.49)"/><line class="bj" y2="1316.549" transform="translate(935.691)"/><line class="bk" y2="1316.549" transform="translate(951.795)"/><line class="bl" y2="1316.549" transform="translate(967.899)"/><line class="bm" y2="1316.549" transform="translate(984.101)"/><line class="bn" y2="1316.549" transform="translate(1000.205)"/><line class="bo" y2="1316.549" transform="translate(1016.309)"/><line class="bp" y2="1316.549" transform="translate(1032.51)"/><line class="bq" y2="1316.549" transform="translate(1048.615)"/><line class="br" y2="1316.549" transform="translate(1064.718)"/><line class="bs" y2="1316.549" transform="translate(1080.822)"/><line class="bt" y2="1316.549" transform="translate(1097.024)"/><line class="bu" y2="1316.549" transform="translate(1113.128)"/><line class="bv" y2="1316.549" transform="translate(1129.232)"/><line class="bw" y2="1316.549" transform="translate(1145.434)"/><line class="bx" y2="1316.549" transform="translate(1161.538)"/><line class="by" y2="1316.549" transform="translate(1177.641)"/><line class="bz" y2="1316.549" transform="translate(1193.745)"/><line class="ca" y2="1316.549" transform="translate(1209.947)"/><line class="cb" y2="1316.549" transform="translate(1226.051)"/><line class="cc" y2="1316.549" transform="translate(1242.155)"/><line class="cd" y2="1316.549" transform="translate(1258.357)"/><line class="ce" y2="1316.549" transform="translate(1274.461)"/><line class="cf" y2="1316.549" transform="translate(1290.565)"/><line class="cg" y2="1316.549" transform="translate(1306.669)"/><line class="ch" y2="1316.549" transform="translate(1322.87)"/><line class="ci" y2="1316.549" transform="translate(1338.974)"/><line class="cj" y2="1316.549" transform="translate(1355.078)"/><line class="ck" y2="1316.549" transform="translate(1371.28)"/><line class="cl" y2="1316.549" transform="translate(1387.384)"/><line class="cm" y2="1316.549" transform="translate(1403.488)"/><line class="cn" y2="1316.549" transform="translate(1419.592)"/><line class="co" y2="1316.549" transform="translate(1435.794)"/><line class="cp" y2="1316.549" transform="translate(1451.898)"/><line class="cq" y2="1316.549" transform="translate(1468.001)"/><line class="cr" y2="1316.549" transform="translate(1484.203)"/><line class="cs" y2="1316.549" transform="translate(1500.307)"/><line class="ct" y2="1316.549" transform="translate(1516.411)"/><line class="cu" y2="1316.549" transform="translate(1532.515)"/><line class="cv" y2="1316.549" transform="translate(1548.717)"/><line class="cw" y2="1316.549" transform="translate(1564.821)"/><line class="cx" y2="1316.549" transform="translate(1580.925)"/><line class="cy" y2="1316.549" transform="translate(1597.126)"/><line class="cz" y2="1316.549" transform="translate(1613.23)"/><line class="da" y2="1316.549" transform="translate(1629.334)"/><line class="db" y2="1316.549" transform="translate(1645.536)"/><line class="dc" y2="1316.549" transform="translate(1661.64)"/><line class="dd" y2="1316.549" transform="translate(1677.744)"/><line class="de" y2="1316.549" transform="translate(1693.848)"/><line class="df" y2="1316.549" transform="translate(1710.05)"/><line class="dg" y2="1316.549" transform="translate(1726.154)"/><line class="dh" y2="1316.549" transform="translate(1742.258)"/><line class="di" y2="1316.549" transform="translate(1758.459)"/><line class="dj" y2="1316.549" transform="translate(1774.563)"/><line class="dk" y2="1316.549" transform="translate(1790.667)"/><line class="dl" y2="1316.549" transform="translate(1806.771)"/><line class="dm" y2="1316.549" transform="translate(1822.973)"/><line class="dn" y2="1316.549" transform="translate(1839.077)"/><line class="do" y2="1316.549" transform="translate(1855.181)"/><line class="dp" y2="1316.549" transform="translate(1871.382)"/><line class="dq" y2="1316.549" transform="translate(1887.486)"/><line class="dr" y2="1316.549" transform="translate(1903.59)"/><line class="ds" y2="1316.549" transform="translate(1919.695)"/><line class="dt" y2="1316.549" transform="translate(1935.896)"/><line class="du" y2="1316.549" transform="translate(1952)"/></g><g transform="translate(0 0)"><line class="d" x1="1952"/><line class="f" x1="1952" transform="translate(0 18.541)"/><line class="h" x1="1952" transform="translate(0 37.083)"/><line class="i" x1="1952" transform="translate(0 55.624)"/><line class="k" x1="1952" transform="translate(0 74.166)"/><line class="l" x1="1952" transform="translate(0 92.707)"/><line class="dv" x1="1952" transform="translate(0 111.248)"/><line class="p" x1="1952" transform="translate(0 129.79)"/><line class="dw" x1="1952" transform="translate(0 148.331)"/><line class="s" x1="1952" transform="translate(0 166.873)"/><line class="u" x1="1952" transform="translate(0 185.414)"/><line class="w" x1="1952" transform="translate(0 203.955)"/><line class="y" x1="1952" transform="translate(0 222.497)"/><line class="aa" x1="1952" transform="translate(0 241.038)"/><line class="dx" x1="1952" transform="translate(0 259.58)"/><line class="dy" x1="1952" transform="translate(0 278.121)"/><line class="dz" x1="1952" transform="translate(0 296.662)"/><line class="ag" x1="1952" transform="translate(0 315.204)"/><line class="ea" x1="1952" transform="translate(0 333.745)"/><line class="eb" x1="1952" transform="translate(0 352.287)"/><line class="al" x1="1952" transform="translate(0 370.828)"/><line class="ec" x1="1952" transform="translate(0 389.369)"/><line class="ed" x1="1952" transform="translate(0 407.911)"/><line class="aq" x1="1952" transform="translate(0 426.452)"/><line class="as" x1="1952" transform="translate(0 444.994)"/><line class="at" x1="1952" transform="translate(0 463.535)"/><line class="av" x1="1952" transform="translate(0 482.076)"/><line class="ax" x1="1952" transform="translate(0 500.618)"/><line class="az" x1="1952" transform="translate(0 519.159)"/><line class="ee" x1="1952" transform="translate(0 537.701)"/><line class="ef" x1="1952" transform="translate(0 556.242)"/><line class="be" x1="1952" transform="translate(0 574.783)"/><line class="bf" x1="1952" transform="translate(0 593.325)"/><line class="bh" x1="1952" transform="translate(0 611.866)"/><line class="bj" x1="1952" transform="translate(0 630.408)"/><line class="bl" x1="1952" transform="translate(0 649.059)"/><line class="bm" x1="1952" transform="translate(0 667.6)"/><line class="bo" x1="1952" transform="translate(0 686.141)"/><line class="bq" x1="1952" transform="translate(0 704.683)"/><line class="bs" x1="1952" transform="translate(0 723.224)"/><line class="bt" x1="1952" transform="translate(0 741.766)"/><line class="eg" x1="1952" transform="translate(0 760.307)"/><line class="eh" x1="1952" transform="translate(0 778.848)"/><line class="by" x1="1952" transform="translate(0 797.39)"/><line class="ca" x1="1952" transform="translate(0 815.931)"/><line class="cc" x1="1952" transform="translate(0 834.473)"/><line class="ce" x1="1952" transform="translate(0 853.014)"/><line class="cf" x1="1952" transform="translate(0 871.555)"/><line class="ch" x1="1952" transform="translate(0 890.097)"/><line class="ei" x1="1952" transform="translate(0 908.638)"/><line class="ej" x1="1952" transform="translate(0 927.18)"/><line class="cm" x1="1952" transform="translate(0 945.721)"/><line class="ek" x1="1952" transform="translate(0 964.262)"/><line class="el" x1="1952" transform="translate(0 982.804)"/><line class="cr" x1="1952" transform="translate(0 1001.345)"/><line class="em" x1="1952" transform="translate(0 1019.887)"/><line class="en" x1="1952" transform="translate(0 1038.428)"/><line class="eo" x1="1952" transform="translate(0 1056.969)"/><line class="cx" x1="1952" transform="translate(0 1075.511)"/><line class="cz" x1="1952" transform="translate(0 1094.052)"/><line class="db" x1="1952" transform="translate(0 1112.594)"/><line class="dd" x1="1952" transform="translate(0 1131.135)"/><line class="df" x1="1952" transform="translate(0 1149.677)"/><line class="ep" x1="1952" transform="translate(0 1168.218)"/><line class="di" x1="1952" transform="translate(0 1186.759)"/><line class="eq" x1="1952" transform="translate(0 1205.301)"/><line class="dm" x1="1952" transform="translate(0 1223.842)"/><line class="dn" x1="1952" transform="translate(0 1242.383)"/><line class="dp" x1="1952" transform="translate(0 1260.925)"/><line class="dq" x1="1952" transform="translate(0 1279.466)"/><line class="ds" x1="1952" transform="translate(0 1298.008)"/><line class="du" x1="1952" transform="translate(0 1316.549)"/></g></g></g><path class="er" d="M0,0H1920V730.667H0Z"/><path class="es" d="M0,730,1920,0H0Z"/><rect class="et" width="1920" height="2" transform="translate(0 730)"/></g></g></svg>