<svg xmlns="http://www.w3.org/2000/svg" viewBox="0 0 60 42"><defs><style>.a{fill:#158b73;}</style></defs><path class="a" d="M50.438-20.719a11.7,11.7,0,0,1,6.844,4.125A11.552,11.552,0,0,1,60-9a11.9,11.9,0,0,1-1.594,6.047,11.674,11.674,0,0,1-4.359,4.359A11.9,11.9,0,0,1,48,3H13.5A13.03,13.03,0,0,1,6.75,1.172,13.758,13.758,0,0,1,1.828-3.75,13.03,13.03,0,0,1,0-10.5a13.085,13.085,0,0,1,2.531-7.828A13.371,13.371,0,0,1,9-23.25V-24a14.673,14.673,0,0,1,2.016-7.5A14.893,14.893,0,0,1,16.5-36.984,14.759,14.759,0,0,1,24.047-39a14.5,14.5,0,0,1,7.547,2.063A15.114,15.114,0,0,1,37.031-31.5,8.768,8.768,0,0,1,42-33a8.679,8.679,0,0,1,6.375,2.625A8.679,8.679,0,0,1,51-24,9.789,9.789,0,0,1,50.438-20.719Z" transform="translate(0 39)"/></svg>