<svg xmlns="http://www.w3.org/2000/svg" viewBox="0 0 54 42"><defs><style>.a{fill:#158b73;}</style></defs><path class="a" d="M54-34.5a1.085,1.085,0,0,0-.328-.8,1.085,1.085,0,0,0-.8-.328H15v-.75a2.17,2.17,0,0,0-.656-1.594,2.17,2.17,0,0,0-1.594-.656h-1.5a2.17,2.17,0,0,0-1.594.656A2.17,2.17,0,0,0,9-36.375v.75H1.125a1.085,1.085,0,0,0-.8.328A1.085,1.085,0,0,0,0-34.5v3.75a1.085,1.085,0,0,0,.328.8,1.085,1.085,0,0,0,.8.328H9v.75a2.17,2.17,0,0,0,.656,1.594,2.17,2.17,0,0,0,1.594.656h1.5a2.17,2.17,0,0,0,1.594-.656A2.17,2.17,0,0,0,15-28.875v-.75H52.875a1.085,1.085,0,0,0,.8-.328,1.085,1.085,0,0,0,.328-.8ZM52.875-20.625a1.085,1.085,0,0,1,.8.328,1.085,1.085,0,0,1,.328.8v3.75a1.085,1.085,0,0,1-.328.8,1.085,1.085,0,0,1-.8.328H45v.75a2.17,2.17,0,0,1-.656,1.594,2.17,2.17,0,0,1-1.594.656h-1.5a2.17,2.17,0,0,1-1.594-.656A2.17,2.17,0,0,1,39-13.875v-.75H1.125a1.085,1.085,0,0,1-.8-.328A1.085,1.085,0,0,1,0-15.75V-19.5a1.085,1.085,0,0,1,.328-.8,1.085,1.085,0,0,1,.8-.328H39v-.75a2.17,2.17,0,0,1,.656-1.594,2.17,2.17,0,0,1,1.594-.656h1.5a2.17,2.17,0,0,1,1.594.656A2.17,2.17,0,0,1,45-21.375v.75Zm0,15a1.085,1.085,0,0,1,.8.328A1.085,1.085,0,0,1,54-4.5V-.75a1.085,1.085,0,0,1-.328.8,1.085,1.085,0,0,1-.8.328H27v.75a2.17,2.17,0,0,1-.656,1.594,2.17,2.17,0,0,1-1.594.656h-1.5a2.17,2.17,0,0,1-1.594-.656A2.17,2.17,0,0,1,21,1.125V.375H1.125a1.085,1.085,0,0,1-.8-.328A1.085,1.085,0,0,1,0-.75V-4.5a1.085,1.085,0,0,1,.328-.8,1.085,1.085,0,0,1,.8-.328H21v-.75a2.17,2.17,0,0,1,.656-1.594,2.17,2.17,0,0,1,1.594-.656h1.5a2.17,2.17,0,0,1,1.594.656A2.17,2.17,0,0,1,27-6.375v.75Z" transform="translate(0 38.625)"/></svg>