<svg xmlns="http://www.w3.org/2000/svg" viewBox="0 0 48 36"><defs><style>.a{fill:#158b73;}</style></defs><path class="a" d="M46.875-6H6V-34.875a1.085,1.085,0,0,0-.328-.8,1.085,1.085,0,0,0-.8-.328H1.125a1.085,1.085,0,0,0-.8.328,1.085,1.085,0,0,0-.328.8v33.75a1.085,1.085,0,0,0,.328.8,1.085,1.085,0,0,0,.8.328h45.75a1.085,1.085,0,0,0,.8-.328,1.085,1.085,0,0,0,.328-.8v-3.75a1.085,1.085,0,0,0-.328-.8A1.085,1.085,0,0,0,46.875-6ZM18-10.125a1.085,1.085,0,0,1-.328.8,1.085,1.085,0,0,1-.8.328h-3.75a1.085,1.085,0,0,1-.8-.328,1.085,1.085,0,0,1-.328-.8v-6.75a1.085,1.085,0,0,1,.328-.8,1.085,1.085,0,0,1,.8-.328h3.75a1.085,1.085,0,0,1,.8.328,1.085,1.085,0,0,1,.328.8Zm18,0a1.085,1.085,0,0,1-.328.8,1.085,1.085,0,0,1-.8.328h-3.75a1.085,1.085,0,0,1-.8-.328,1.085,1.085,0,0,1-.328-.8v-12.75a1.085,1.085,0,0,1,.328-.8,1.085,1.085,0,0,1,.8-.328h3.75a1.085,1.085,0,0,1,.8.328,1.085,1.085,0,0,1,.328.8Zm-9,0a1.085,1.085,0,0,1-.328.8,1.085,1.085,0,0,1-.8.328h-3.75a1.085,1.085,0,0,1-.8-.328,1.085,1.085,0,0,1-.328-.8v-18.75a1.085,1.085,0,0,1,.328-.8,1.085,1.085,0,0,1,.8-.328h3.75a1.085,1.085,0,0,1,.8.328,1.085,1.085,0,0,1,.328.8Zm18,0a1.085,1.085,0,0,1-.328.8,1.085,1.085,0,0,1-.8.328h-3.75a1.085,1.085,0,0,1-.8-.328,1.085,1.085,0,0,1-.328-.8v-21.75a1.085,1.085,0,0,1,.328-.8,1.085,1.085,0,0,1,.8-.328h3.75a1.085,1.085,0,0,1,.8.328,1.085,1.085,0,0,1,.328.8Z" transform="translate(0 36)"/></svg>