<svg xmlns="http://www.w3.org/2000/svg" viewBox="0 0 36 48"><defs><style>.a{fill:#158b73;}</style></defs><path class="a" d="M33.75-42a2.17,2.17,0,0,1,1.594.656A2.17,2.17,0,0,1,36-39.75v1.5a2.17,2.17,0,0,1-.656,1.594A2.17,2.17,0,0,1,33.75-36a20.616,20.616,0,0,1-3.187,11.3A15.5,15.5,0,0,1,22.406-18a15.5,15.5,0,0,1,8.156,6.7A20.616,20.616,0,0,1,33.75,0a2.17,2.17,0,0,1,1.594.656A2.17,2.17,0,0,1,36,2.25v1.5a2.17,2.17,0,0,1-.656,1.594A2.17,2.17,0,0,1,33.75,6H2.25A2.17,2.17,0,0,1,.656,5.344,2.17,2.17,0,0,1,0,3.75V2.25A2.17,2.17,0,0,1,.656.656,2.17,2.17,0,0,1,2.25,0,20.616,20.616,0,0,1,5.438-11.3,15.5,15.5,0,0,1,13.594-18a15.5,15.5,0,0,1-8.156-6.7A20.616,20.616,0,0,1,2.25-36a2.17,2.17,0,0,1-1.594-.656A2.17,2.17,0,0,1,0-38.25v-1.5a2.17,2.17,0,0,1,.656-1.594A2.17,2.17,0,0,1,2.25-42ZM26.719-6a12.917,12.917,0,0,0-3.562-5.437A7.636,7.636,0,0,0,18-13.5a7.636,7.636,0,0,0-5.156,2.063A12.917,12.917,0,0,0,9.281-6Zm0-24a17.292,17.292,0,0,0,1.031-6H8.25a17.292,17.292,0,0,0,1.031,6Z" transform="translate(0 42)"/></svg>