<svg xmlns="http://www.w3.org/2000/svg" viewBox="0 0 48 39.891"><defs><style>.a{fill:#158b73;}</style></defs><path class="a" d="M29.355,38.657c3.92-.132,7.84.053,11.628-.5,6.463-.954,10.463-6.569,10.754-12.608a12.818,12.818,0,0,0-3.205-9.032c-2.94-3.523-6.728-4.9-11.284-4.768v4.371c.954.132,1.828.212,2.675.371a8.783,8.783,0,0,1,3.311,15.946c-2.887,2.066-6.066,1.43-9.3,1.536V5.2H29.381C29.355,16.354,29.355,27.373,29.355,38.657Zm-3.364,6.41V11.8c-3.417,0-6.754-.026-10.092.026a8.011,8.011,0,0,0-1.934.344,13.384,13.384,0,0,0-10.2,13.8c.344,7.311,7.2,13.35,14.542,12.449V34.128c-1.033-.132-2.04-.238-2.993-.4A8.724,8.724,0,0,1,9.78,20.3c2.6-3.947,6.754-4.529,11.84-3.788V45.094C23.1,45.067,24.507,45.067,25.991,45.067Z" transform="translate(-3.752 -5.203)"/></svg>