<svg xmlns="http://www.w3.org/2000/svg" viewBox="0 0 60 36"><defs><style>.a{fill:#158b73;}</style></defs><path class="a" d="M30,7a9.766,9.766,0,0,0-9.844,9.844,9.856,9.856,0,0,0,18.375,4.969,9.682,9.682,0,0,0,1.313-4.969A9.766,9.766,0,0,0,30,7ZM40.594,27.344a6.489,6.489,0,0,1,3.75,2.391,6.659,6.659,0,0,1,1.406,4.172v5.719A3.361,3.361,0,0,1,42.375,43H17.625a3.361,3.361,0,0,1-3.375-3.375V33.906a6.659,6.659,0,0,1,1.406-4.172,6.489,6.489,0,0,1,3.75-2.391l3.75-.937a11.705,11.705,0,0,0,6.469,2.25,10.919,10.919,0,0,0,7.219-2.25ZM49.5,29.125a6.562,6.562,0,0,1-6.562-6.562,6.563,6.563,0,1,1,11.2,4.641A6.323,6.323,0,0,1,49.5,29.125Zm-39,0A6.323,6.323,0,0,1,5.859,27.2a6.564,6.564,0,0,1,0-9.281A6.323,6.323,0,0,1,10.5,16a6.323,6.323,0,0,1,4.641,1.922,6.564,6.564,0,0,1,0,9.281A6.323,6.323,0,0,1,10.5,29.125Zm2.25,10.5V40H2.25a2.17,2.17,0,0,1-1.594-.656A2.17,2.17,0,0,1,0,37.75V33.906a4.468,4.468,0,0,1,3.375-4.312l2.531-.656a8.056,8.056,0,0,0,8.063.75,7.876,7.876,0,0,0-1.219,4.219ZM56.625,29.594A4.468,4.468,0,0,1,60,33.906V37.75A2.241,2.241,0,0,1,57.75,40H47.25V33.906a8.356,8.356,0,0,0-1.219-4.312,7.87,7.87,0,0,0,3.938.844,7.244,7.244,0,0,0,4.125-1.5Z" transform="translate(0 -7)"/></svg>