<svg xmlns="http://www.w3.org/2000/svg" viewBox="0 0 92.75 54.733"><defs><style>.a{fill:#454654;}</style></defs><g transform="translate(-0.5 -29.274)"><path class="a" d="M-20.244-6.468c4.2,4.2,10.08,7.476,18.816,7.476,10.416,0,19.572-6.8,19.572-18.648,0-11.34-7.812-16.548-16.968-16.548a13.369,13.369,0,0,0-5.964,1.26l.924-10H15.708V-53.34h-30.24l-1.512,26.964,5.544,3.528c3.192-2.016,4.788-2.688,7.9-2.688,4.956,0,8.4,2.856,8.4,8.232,0,5.46-3.528,8.316-8.988,8.316-4.536,0-8.316-2.352-11.508-5.292Z" transform="translate(35.719 83)"/><path class="a" d="M3.94-11.24A4.957,4.957,0,0,0,.96-12.88V-14.9H-.98v2.06a3.573,3.573,0,0,0-3.04,3.7c0,3.6,5.28,3.56,5.28,5.62,0,.92-.5,1.38-1.62,1.38A4.755,4.755,0,0,1-3.22-3.3L-4.5-1.32A6.621,6.621,0,0,0-.98.2v2H.96V.12A3.7,3.7,0,0,0,4.08-3.72c0-3.82-5.28-3.66-5.28-5.56,0-.9.52-1.28,1.48-1.28a3.065,3.065,0,0,1,2.18,1Z" transform="translate(5 44.174)"/><path class="a" d="M-17.57,3.2h1.92l4.02-17.4h-1.92ZM-9.53,0h2.72V-4.78c0-1.28-.24-3.18-.38-4.44h.08L-6.07-6.2l2,5.06h1.18L-.87-6.2.19-9.22H.27C.13-7.96-.11-6.06-.11-4.78V0H2.65V-13.04H-.47L-2.59-7.18-3.37-4.9h-.08l-.78-2.28-2.18-5.86H-9.53ZM10.99.24c3.52,0,5.92-2.56,5.92-6.82,0-4.24-2.4-6.7-5.92-6.7-3.5,0-5.92,2.44-5.92,6.7S7.49.24,10.99.24Zm0-2.54c-1.76,0-2.9-1.66-2.9-4.28,0-2.6,1.14-4.16,2.9-4.16,1.78,0,2.9,1.56,2.9,4.16C13.89-3.96,12.77-2.3,10.99-2.3Z" transform="translate(76.34 80.436)"/></g></svg>