<svg xmlns="http://www.w3.org/2000/svg" viewBox="0 0 92.75 55.356"><defs><style>.a{fill:#454654;}</style></defs><g transform="translate(-0.5 -28.652)"><path class="a" d="M0,1.008c11.424,0,19.068-9.744,19.068-27.888S11.424-54.348,0-54.348-19.068-45.024-19.068-26.88-11.424,1.008,0,1.008ZM0-8.568c-4.116,0-7.392-3.78-7.392-18.312C-7.392-41.5-4.116-44.772,0-44.772c4.2,0,7.392,3.276,7.392,17.892C7.392-12.348,4.2-8.568,0-8.568Z" transform="translate(35.719 83)"/><path class="a" d="M3.94-11.24A4.957,4.957,0,0,0,.96-12.88V-14.9H-.98v2.06a3.573,3.573,0,0,0-3.04,3.7c0,3.6,5.28,3.56,5.28,5.62,0,.92-.5,1.38-1.62,1.38A4.755,4.755,0,0,1-3.22-3.3L-4.5-1.32A6.621,6.621,0,0,0-.98.2v2H.96V.12A3.7,3.7,0,0,0,4.08-3.72c0-3.82-5.28-3.66-5.28-5.56,0-.9.52-1.28,1.48-1.28a3.065,3.065,0,0,1,2.18,1Z" transform="translate(5 44.174)"/><path class="a" d="M-17.57,3.2h1.92l4.02-17.4h-1.92ZM-9.53,0h2.72V-4.78c0-1.28-.24-3.18-.38-4.44h.08L-6.07-6.2l2,5.06h1.18L-.87-6.2.19-9.22H.27C.13-7.96-.11-6.06-.11-4.78V0H2.65V-13.04H-.47L-2.59-7.18-3.37-4.9h-.08l-.78-2.28-2.18-5.86H-9.53ZM10.99.24c3.52,0,5.92-2.56,5.92-6.82,0-4.24-2.4-6.7-5.92-6.7-3.5,0-5.92,2.44-5.92,6.7S7.49.24,10.99.24Zm0-2.54c-1.76,0-2.9-1.66-2.9-4.28,0-2.6,1.14-4.16,2.9-4.16,1.78,0,2.9,1.56,2.9,4.16C13.89-3.96,12.77-2.3,10.99-2.3Z" transform="translate(76.34 80.436)"/></g></svg>